<svg width="180" height="180" viewBox="0 0 180 180" fill="none" xmlns="http://www.w3.org/2000/svg">
<path d="M174.089 130.342V98.9833V91.0159C174.089 86.743 172.566 82.8192 170.034 79.7585V56.7575C170.034 55.3014 168.854 54.1208 167.398 54.1208C165.941 54.1208 164.761 55.3014 164.761 56.7575V75.4325C162.966 74.4657 160.985 73.8023 158.888 73.506V60.7815V24.6957C159.825 24.946 160.809 25.0817 161.825 25.0817C162.84 25.0817 163.824 24.9464 164.761 24.6961V44.4532C164.761 45.9094 165.941 47.0899 167.398 47.0899C168.854 47.0899 170.035 45.9094 170.035 44.4532V21.5735C172.001 19.526 173.213 16.7497 173.213 13.6936C173.213 7.41397 168.104 2.30542 161.825 2.30542C155.545 2.30542 150.436 7.41397 150.436 13.6936C150.436 15.9429 151.094 18.0403 152.224 19.8083H127.324C117.592 19.8083 108.444 16.0188 101.563 9.13768C98.4744 6.04921 94.3682 4.34835 90.0004 4.34835C85.6329 4.34835 81.5263 6.04921 78.4378 9.13768C71.557 16.0185 62.408 19.8083 52.6771 19.8083H27.7763C28.9065 18.0403 29.5646 15.9429 29.5646 13.6936C29.5646 7.41397 24.4561 2.30542 18.1761 2.30542C11.8962 2.30542 6.78797 7.41397 6.78797 13.6936C6.78797 16.7494 8.00016 19.526 9.96609 21.5735V79.7589C7.43449 82.8195 5.91152 86.743 5.91152 91.0159V98.9837V130.342C2.61 130.596 0 133.358 0 136.723V143.987C0 147.353 2.61 150.114 5.91117 150.368V166.2C5.91117 172.538 11.0675 177.694 17.4055 177.694C23.7431 177.694 28.8995 172.538 28.8995 166.2V161.769H83.8477C85.3042 161.769 86.4844 160.588 86.4844 159.132C86.4844 157.676 85.3042 156.495 83.8477 156.495H28.8998V150.394H151.1V156.495H96.1523C94.6958 156.495 93.5156 157.676 93.5156 159.132C93.5156 160.588 94.6958 161.769 96.1523 161.769H151.1V166.2C151.1 172.538 156.257 177.694 162.594 177.694C168.932 177.694 174.089 172.538 174.089 166.2V150.368C177.39 150.114 180 147.353 180 143.987V136.723C180 133.358 177.39 130.596 174.089 130.342ZM80.2983 75.9644C80.2983 81.1338 76.648 84.0658 72.7594 84.0658H33.9258C29.7686 84.0658 26.3865 80.6838 26.3865 76.5266C26.3865 68.6379 26.3865 64.5095 26.3865 60.7812C26.3865 56.6239 29.7686 53.2419 33.9258 53.2419H72.7594C76.9163 53.2419 80.2983 56.6239 80.2983 60.7812V75.9644ZM18.1761 25.0817C19.1914 25.0817 20.1755 24.9464 21.1131 24.6957V60.7815V73.506C19.0157 73.8027 17.0346 74.4657 15.2395 75.4329V24.6957C16.1768 24.946 17.1608 25.0817 18.1761 25.0817ZM11.1846 91.0159C11.1846 87.8304 12.3922 84.9222 14.3715 82.7222C14.426 82.673 14.4798 82.623 14.5304 82.5685C16.3519 80.6156 18.7464 79.3117 21.3184 78.8212C22.4149 84.8333 27.6863 89.3393 33.9254 89.3393H72.759C79.1648 89.3393 84.4186 84.6276 85.4037 78.6012H94.5956C95.5842 84.6456 100.849 89.3393 107.241 89.3393H146.074C152.312 89.3393 157.587 84.8287 158.681 78.8209C161.253 79.3113 163.647 80.6153 165.469 82.5682C165.52 82.6234 165.575 82.674 165.63 82.7243C167.608 84.9244 168.815 87.8314 168.815 91.0159V96.347H11.1846V91.0159ZM153.614 75.9641C153.614 81.1338 149.964 84.0658 146.075 84.0658H107.241C103.489 84.0658 99.7017 81.273 99.7017 75.9644V60.7815C99.7017 56.6243 103.084 53.2423 107.241 53.2423H146.075C150.232 53.2423 153.614 56.6243 153.614 60.7815V75.9641ZM11.1846 101.62H168.815V130.317H11.1846V101.62ZM161.824 7.57886C165.196 7.57886 167.939 10.3221 167.939 13.6936C167.939 17.0668 165.193 19.8083 161.824 19.8083C158.472 19.8083 155.709 17.0826 155.709 13.6936C155.709 10.3217 158.452 7.57886 161.824 7.57886ZM82.1665 12.8667C84.259 10.7742 87.0409 9.62214 90 9.62214C92.9591 9.62214 95.741 10.7746 97.8332 12.8667C105.71 20.7438 116.184 25.0817 127.324 25.0817H153.614V50.4276C151.507 48.8892 148.88 47.9688 146.075 47.9688H107.241C100.176 47.9688 94.4283 53.7165 94.4283 60.7815V73.3277H85.5721V60.7815C85.5721 53.7165 79.8244 47.9688 72.7597 47.9688H33.9258C31.2195 47.9688 28.5732 48.8308 26.3865 50.4276V25.0817H52.6767C63.8163 25.0817 74.2894 20.7435 82.1665 12.8667ZM18.1761 7.57886C21.548 7.57886 24.2912 10.3221 24.2912 13.6936C24.2912 17.0651 21.5466 19.8083 18.1761 19.8083C14.8071 19.8083 12.0611 17.0665 12.0611 13.6936C12.0614 10.3217 14.8043 7.57886 18.1761 7.57886ZM23.6264 166.2C23.6264 169.63 20.8357 172.421 17.4059 172.421C13.976 172.421 11.185 169.63 11.185 166.2V150.393H23.6268C23.6264 151.869 23.6264 164.598 23.6264 166.2ZM168.816 166.2C168.816 169.63 166.025 172.421 162.595 172.421C159.165 172.421 156.374 169.63 156.374 166.2C156.374 164.598 156.374 151.869 156.374 150.393H168.816V166.2H168.816ZM174.727 143.987C174.727 144.612 174.219 145.12 173.594 145.12C172.323 145.12 8.53066 145.12 6.40617 145.12C5.78145 145.12 5.27309 144.612 5.27309 143.987V136.723C5.27309 136.098 5.78109 135.59 6.40617 135.59H173.594C174.218 135.59 174.727 136.098 174.727 136.723V143.987Z" fill="white"/>
</svg>
