<svg width="175" height="175" viewBox="0 0 175 175" fill="none" xmlns="http://www.w3.org/2000/svg">
<g clip-path="url(#clip0)">
<path d="M172.437 23.1807H162.183C160.767 23.1807 159.619 24.3284 159.619 25.7441V28.3076L78.751 28.3086C72.5884 28.3086 66.7946 30.7084 62.4374 35.0663L58.9412 38.5625L15.3809 38.5615V35.998C15.3809 34.5823 14.2331 33.4346 12.8174 33.4346H2.56348C1.14775 33.4346 0 34.5823 0 35.998V70.1275C0 71.5432 1.14775 72.691 2.56348 72.691C3.9792 72.691 5.12695 71.5432 5.12695 70.1275V38.5615H10.2539V111.947H5.12695V80.3814C5.12695 78.9657 3.9792 77.8179 2.56348 77.8179C1.14775 77.8179 0 78.9657 0 80.3814V114.511C0 115.927 1.14775 117.074 2.56348 117.074H12.8174C14.2331 117.074 15.3809 115.927 15.3809 114.511V111.947L32.5514 111.948C37.3444 111.948 41.851 113.815 45.2399 117.204L76.1086 148.073C78.6078 150.572 81.8891 151.821 85.172 151.821C88.454 151.821 91.7369 150.571 94.2351 148.073C96.4718 145.836 97.7775 142.918 97.9634 139.787C99.6522 140.558 101.475 140.945 103.298 140.945C106.58 140.945 109.863 139.695 112.362 137.197C114.664 134.895 115.902 131.927 116.084 128.908C117.774 129.681 119.6 130.069 121.425 130.069C124.707 130.069 127.99 128.819 130.488 126.321C132.79 124.019 134.029 121.052 134.211 118.032C135.901 118.805 137.726 119.193 139.552 119.193C142.834 119.193 146.116 117.944 148.615 115.445C152.327 111.734 153.279 106.295 151.479 101.694L159.62 101.693V104.257C159.62 105.673 160.768 106.82 162.184 106.82H172.438C173.853 106.82 175.001 105.673 175.001 104.257V25.7441C175 24.3284 173.852 23.1807 172.437 23.1807ZM144.989 111.82C141.991 114.818 137.112 114.818 134.113 111.82L116.573 94.2799C115.572 93.2784 113.949 93.2788 112.948 94.2799L105.698 101.53C104.696 102.532 104.696 104.154 105.698 105.156C106.698 106.157 108.322 106.157 109.323 105.156L114.761 99.7175L126.863 111.82C129.861 114.818 129.861 119.697 126.863 122.696C123.864 125.694 118.985 125.694 115.987 122.696L102.072 108.781C101.592 108.3 100.939 108.03 100.26 108.03C99.5798 108.03 98.9276 108.3 98.4471 108.781L91.1965 116.031C90.1954 117.032 90.1954 118.655 91.1965 119.656C92.1977 120.657 93.8208 120.657 94.8216 119.656L100.26 114.218L108.738 122.696C111.735 125.695 111.734 130.573 108.737 133.571C105.738 136.569 100.859 136.569 97.8605 133.571L87.5711 123.281C87.0905 122.8 86.4384 122.53 85.7585 122.53C85.0787 122.53 84.4266 122.8 83.946 123.281L76.6955 130.532C75.6943 131.533 75.6943 133.156 76.6955 134.157C77.6966 135.158 79.3198 135.158 80.3206 134.157L85.7585 128.719L90.61 133.57C92.0626 135.023 92.8624 136.954 92.8624 139.008C92.8624 141.063 92.0626 142.994 90.61 144.446C87.6118 147.445 82.7326 147.445 79.734 144.446L48.8653 113.578C44.5078 109.221 38.7143 106.82 32.5517 106.82H15.3809V43.6885L53.8142 43.6895L33.0706 64.4332C30.6496 66.8541 29.3163 70.0728 29.3163 73.4962C29.3163 76.9197 30.6496 80.1387 33.0706 82.5597C35.4915 84.9806 38.7102 86.314 42.134 86.314C45.5578 86.314 48.7765 84.9806 51.1971 82.5597L69.5591 64.1977H100.81C105.603 64.1977 110.11 66.0642 113.499 69.4535L144.989 100.944C147.988 103.942 147.987 108.821 144.989 111.82ZM147.863 96.5675L117.124 65.828C112.766 61.4705 106.973 59.0704 100.81 59.0704H68.4971C67.8173 59.0704 67.1651 59.3404 66.6846 59.8213L47.5716 78.9342C46.119 80.3869 44.1878 81.1867 42.1336 81.1867C40.0794 81.1867 38.1483 80.3865 36.6957 78.9342C35.243 77.4816 34.4432 75.5504 34.4432 73.4962C34.4432 71.442 35.2434 69.5109 36.6957 68.0583L66.0625 38.6914C69.4518 35.3021 73.958 33.4356 78.751 33.4356L159.619 33.4346V96.5665L147.863 96.5675ZM169.873 101.693H164.746V28.3076H169.873V101.693Z" fill="white"/>
<line x1="85.5" y1="152" x2="85.5" y2="183" stroke="black"/>
</g>
<defs>
<clipPath id="clip0">
<rect width="175" height="175" fill="white"/>
</clipPath>
</defs>
</svg>
