<svg width="90" height="90" viewBox="0 0 90 90" fill="none" xmlns="http://www.w3.org/2000/svg">
<path d="M60.9079 60.2329C60.0024 58.7204 58.5495 57.644 56.8164 57.2013C55.0832 56.7584 53.2781 57.0029 51.7332 57.8893L42.7956 63.0155C41.9686 63.4901 41.0022 63.621 40.0746 63.3841C39.147 63.1471 38.369 62.5708 37.8791 61.7528L22.4184 36.3642C21.9336 35.5546 21.7998 34.6087 22.0419 33.7008C22.284 32.7927 22.8727 32.0314 23.6999 31.557L32.6366 26.4294H32.6368C34.1818 25.5432 35.2817 24.1209 35.7339 22.4246C36.1861 20.7285 35.9365 18.9616 35.0308 17.4495L26.5267 3.24672C25.621 1.73448 24.1681 0.657992 22.4351 0.215375C20.7022 -0.227242 18.8967 0.0172698 17.352 0.903558L11.2387 4.41039C5.51565 7.69328 1.52618 13.2381 0.293096 19.623C0.155169 20.3372 0.634861 21.0258 1.36437 21.1606C2.09459 21.2954 2.79751 20.8262 2.93526 20.112C3.97887 14.7091 7.25787 9.98722 11.9767 7.05256L24.5361 28.0268L22.3406 29.2862C20.8936 30.1163 19.8637 31.448 19.4404 33.0362C19.0169 34.6242 19.2507 36.2788 20.1036 37.7032L35.5643 63.0919C37.3152 66.0154 41.1691 66.9992 44.1555 65.286L46.351 64.0266L58.9105 85.0008C49.3707 90.0367 37.3518 86.7969 31.8249 77.5666L5.36515 33.8105C3.87668 31.3251 2.97423 28.6235 2.68257 25.7812C2.6084 25.058 1.95109 24.5312 1.21028 24.6033C0.471432 24.6758 -0.0673458 25.321 0.00682589 26.0443C0.337456 29.266 1.3597 32.3267 3.04805 35.1461L29.5076 78.9026C33.7738 86.027 41.4577 90 49.3414 90C53.2797 90 57.2686 89.0081 60.9047 86.9222L67.018 83.4152C68.5632 82.5289 69.663 81.1069 70.1152 79.4106C70.5675 77.7147 70.3178 75.9477 69.4123 74.4355L60.9079 60.2329ZM18.4522 12.6617L14.29 5.71082L18.7117 3.1743C19.6372 2.64326 20.7182 2.49737 21.7562 2.76209C22.7942 3.02717 23.6644 3.67194 24.2067 4.57774L32.7112 18.7805C33.2537 19.6863 33.4031 20.7445 33.1323 21.7603C32.8615 22.7764 32.2027 23.628 31.2773 24.1589L26.8557 26.6954L18.4522 12.6617ZM67.5135 78.7461C67.2427 79.762 66.5839 80.6136 65.6585 81.1445L61.2367 83.6812L48.6712 62.6966L53.0928 60.1601C54.0184 59.6292 55.0997 59.483 56.1374 59.7481C57.1754 60.0131 58.0456 60.6579 58.5879 61.5637L67.0923 75.7663C67.6349 76.6719 67.7843 77.7301 67.5135 78.7461Z" fill="white"/>
<path d="M83.2543 11.3948C78.9468 7.2109 73.2453 4.91309 67.1812 4.91309C67.1217 4.91309 67.0616 4.91344 67.0023 4.91379C54.4987 5.00678 44.3411 15.0412 44.3589 27.2819C44.3708 35.454 48.91 42.9235 56.2242 46.8466V51.6352C56.2242 52.4832 56.7129 53.2311 57.4992 53.5871C57.7987 53.7226 58.1144 53.789 58.4273 53.789C58.9355 53.789 59.4355 53.6136 59.8441 53.2736L64.4659 49.4284C69.0371 49.9596 73.7298 49.1138 77.7653 47.0422C78.4228 46.7047 78.6763 45.9093 78.3315 45.2656C77.9867 44.6219 77.1737 44.3742 76.5164 44.7115C73.6585 46.1784 70.4298 46.954 67.1794 46.954C66.3207 46.954 65.4522 46.8996 64.5983 46.7926C63.9817 46.7151 63.3594 46.8951 62.8898 47.2855L58.9133 50.5939V46.5588C58.9133 45.762 58.4675 45.0351 57.7497 44.6618C51.1592 41.2349 47.0585 34.574 47.0479 27.2782C47.0323 16.4797 55.9929 7.62767 67.0226 7.54558C67.0754 7.54506 67.1278 7.54488 67.1804 7.54488C72.5301 7.54488 77.5604 9.57217 81.3602 13.263C85.1977 16.9907 87.3111 21.9577 87.3111 27.2494C87.3111 32.5898 85.1641 37.5894 81.2657 41.3269C80.7352 41.8354 80.7264 42.6688 81.2459 43.1879C81.7657 43.7069 82.6168 43.7157 83.1473 43.2072C87.5665 38.9703 90.0002 33.3032 90.0002 27.2494C90.0004 21.2511 87.6046 15.6204 83.2543 11.3948Z" fill="white"/>
<path d="M77.4028 18.3032H56.9602C56.2175 18.3032 55.6157 18.8923 55.6157 19.6191C55.6157 20.346 56.2175 20.935 56.9602 20.935H77.4028C78.1454 20.935 78.7472 20.346 78.7472 19.6191C78.7472 18.8923 78.1454 18.3032 77.4028 18.3032Z" fill="white"/>
<path d="M77.4024 25.9226H66.3171C65.5745 25.9226 64.9727 26.5116 64.9727 27.2385C64.9727 27.9654 65.5745 28.5544 66.3171 28.5544H77.4024C78.145 28.5544 78.7469 27.9654 78.7469 27.2385C78.7469 26.5116 78.145 25.9226 77.4024 25.9226Z" fill="white"/>
<path d="M56.9602 28.5544H60.0579C60.8006 28.5544 61.4024 27.9654 61.4024 27.2385C61.4024 26.5117 60.8006 25.9226 60.0579 25.9226H56.9602C56.2175 25.9226 55.6157 26.5117 55.6157 27.2385C55.6157 27.9654 56.2175 28.5544 56.9602 28.5544Z" fill="white"/>
<path d="M56.9602 36.1738H77.4028C78.1454 36.1738 78.7472 35.5847 78.7472 34.8579C78.7472 34.131 78.1454 33.542 77.4028 33.542H56.9602C56.2175 33.542 55.6157 34.131 55.6157 34.8579C55.6155 35.5847 56.2175 36.1738 56.9602 36.1738Z" fill="white"/>
</svg>
