<svg width="90" height="90" viewBox="0 0 90 90" fill="none" xmlns="http://www.w3.org/2000/svg">
<path d="M27.8642 29.7382C27.9477 34.5838 29.7515 39.1482 32.9435 42.5903C36.1354 46.0322 40.3487 47.9568 44.8074 48.0099C46.8859 48.0349 48.9312 47.6576 50.8687 46.8891C51.5529 46.6182 51.9051 45.7956 51.6559 45.0522C51.4066 44.3088 50.6499 43.9253 49.966 44.1966C48.3267 44.846 46.6057 45.1672 44.8362 45.1439C37.0765 45.0516 30.6454 38.1165 30.4999 29.673C30.3946 25.3826 31.9971 21.1633 34.896 18.0969C37.7959 15.0297 41.7215 13.4052 45.6752 13.6355C53.2331 14.0077 59.3036 20.7441 59.4954 28.9716C59.5402 30.8896 59.2725 32.7698 58.7002 34.5598C58.32 35.7484 57.2769 36.5469 56.1043 36.5469C56.1042 36.5469 56.104 36.5469 56.104 36.5469C54.5844 36.5469 53.3482 35.2031 53.3482 33.5511V21.7392C53.3482 20.9476 52.7581 20.3062 52.0299 20.3062C51.3017 20.3062 50.7116 20.9476 50.7116 21.7392V22.7721C49.2168 21.2447 47.2074 20.3062 44.9989 20.3062C40.3953 20.3062 36.6497 24.3776 36.6497 29.3819C36.6497 34.3861 40.3953 38.4575 44.9989 38.4575C47.383 38.4575 49.5351 37.3639 51.058 35.6162C51.8281 37.8324 53.7989 39.413 56.1038 39.413H56.1043C58.3982 39.413 60.4423 37.8408 61.1905 35.501C61.8678 33.3841 62.184 31.163 62.1314 28.8988C61.9047 19.1745 54.7287 11.2126 45.8061 10.7731C41.1309 10.4983 36.4832 12.4191 33.0576 16.0429C29.6325 19.6655 27.7397 24.6615 27.8642 29.7382ZM44.9991 35.5915C41.8491 35.5915 39.2865 32.806 39.2865 29.3819C39.2865 25.9577 41.8491 23.1722 44.9991 23.1722C48.1492 23.1722 50.7118 25.9577 50.7118 29.3819C50.7118 32.806 48.1492 35.5915 44.9991 35.5915Z" fill="white"/>
<path d="M89.4897 34.13L52.528 2.7362C48.2529 -0.894638 42.2672 -0.913936 37.9724 2.68996L0.516056 34.1223C0.194741 34.3897 -0.000543291 34.8194 0.000159805 35.2592V47.8696C0.000159805 48.6612 0.590232 49.3026 1.31846 49.3026C2.04669 49.3026 2.63677 48.6612 2.63677 47.8696V37.701L35.7881 57.8307L2.63677 85.6502V54.5569C2.63677 53.7653 2.04669 53.1239 1.31846 53.1239C0.590232 53.1239 0.000159805 53.7653 0.000159805 54.5569V88.5668C-0.0114413 89.336 0.610271 90.0132 1.31846 89.9998H88.678C89.3813 90.0101 90.0111 89.3355 89.9963 88.5668V35.4285C90.028 34.9367 89.8552 34.4338 89.4897 34.13ZM5.18338 87.1338L39.5837 58.2661C42.9241 55.4632 47.5795 55.4777 50.9046 58.3022L51.5395 58.8414C51.54 58.8418 68.0663 72.8783 68.0675 72.8795C68.6416 73.3667 69.4697 73.2564 69.918 72.6326C70.3663 72.0088 70.2647 71.1083 69.6909 70.6211L54.7099 57.897L62.8154 52.9333C63.4496 52.5448 63.6742 51.6711 63.3169 50.9813C62.9597 50.2918 62.1561 50.0483 61.5212 50.4362L52.4579 55.9865C48.2163 52.4382 42.3251 52.4147 38.0601 55.9273L3.70512 35.0666L39.5839 4.95831C42.9243 2.15536 47.5797 2.17007 50.9048 4.99442L86.4395 35.1761L66.7283 47.2471C66.0941 47.6355 65.8694 48.5093 66.2268 49.199C66.5863 49.8951 67.3997 50.1288 68.0225 49.7442L87.3599 37.902V85.6282L74.4003 74.6208C73.8266 74.1338 72.9981 74.2439 72.5497 74.8677C72.1015 75.4915 72.2031 76.392 72.7768 76.8793L84.8498 87.1336H5.18338V87.1338Z" fill="white"/>
</svg>
