<svg width="180" height="180" viewBox="0 0 180 180" fill="none" xmlns="http://www.w3.org/2000/svg">
<g clip-path="url(#clip0)">
<path d="M172.375 80.2195C172.375 65.328 168.258 51.0213 160.783 38.6788C162.603 35.946 165.236 33.317 169.002 31.9088C170.344 31.4069 171.21 30.1547 171.21 28.7177C171.21 27.2808 170.344 26.0286 169.002 25.5263C161.97 22.8972 158.884 16.0099 157.672 12.1388C157.224 10.7103 155.916 9.74995 154.418 9.74995C152.919 9.74995 151.611 10.7096 151.164 12.1384C150.416 14.5245 148.956 18.0549 146.3 21.0292C143.344 18.3267 140.171 15.822 136.786 13.5515C135.577 12.7408 133.941 13.0636 133.131 14.2719C132.32 15.4802 132.642 17.117 133.851 17.927C136.803 19.907 139.579 22.0812 142.181 24.416C141.452 24.8382 140.671 25.2133 139.833 25.527C138.492 26.0289 137.625 27.2811 137.625 28.7181C137.625 30.155 138.492 31.4072 139.833 31.9095C146.866 34.5386 149.951 41.4262 151.164 45.2977C151.612 46.7259 152.919 47.6862 154.418 47.6862C155.916 47.6862 157.224 46.7262 157.672 45.2973C157.763 45.0058 157.867 44.6949 157.98 44.3721C163.883 55.2053 167.107 67.4836 167.107 80.2195C167.107 104.25 155.737 125.671 138.097 139.396L135.656 116.579C143.904 106.727 148.877 94.0436 148.877 80.2191C148.877 62.0607 140.295 45.8737 126.979 35.4852C126.979 35.4852 125.809 24.5421 125.809 24.5417C125.179 18.6569 118.952 15.0422 113.586 17.1304C112.504 17.5515 111.507 18.1841 110.666 18.985C108.774 20.7865 107.992 23.1743 107.871 25.7152C102.879 24.2737 97.607 23.4985 92.1571 23.4985C83.327 23.4985 74.9645 25.5315 67.5054 29.1462L57.4428 27.8171C55.0076 27.4957 52.7632 29.2154 52.4414 31.6513L51.2036 41.0223C41.4438 51.2148 35.4361 65.0269 35.4361 80.2191C35.4361 94.6772 40.8776 107.886 49.8155 117.914L46.9089 139.918C28.8772 126.218 17.2063 104.56 17.2063 80.2191C17.2063 60.199 25.0026 41.3774 39.159 27.2207C53.3139 13.0647 72.1359 5.26872 92.1564 5.26872C103.101 5.26872 113.648 7.57362 123.505 12.1188C124.827 12.7292 126.391 12.1507 127 10.8297C127.609 9.50829 127.032 7.94348 125.711 7.33442C115.157 2.46752 103.868 0 92.1564 0C70.7288 0 50.5837 8.34425 35.4322 23.4957C20.2808 38.6471 11.9365 58.7919 11.9365 80.2195C11.9365 101.647 20.2808 121.792 35.4326 136.943C38.7631 140.274 42.3406 143.266 46.1151 145.922L45.5109 150.495C45.3206 151.937 46.3353 153.261 47.7775 153.452C49.2212 153.643 50.5436 152.627 50.7344 151.185L58.3508 93.5286L66.616 94.6203L56.4625 171.484C55.8046 176.465 47.5447 175.332 48.198 170.385C48.2303 170.14 49.1256 163.362 49.1256 163.362C49.316 161.92 48.3013 160.596 46.859 160.406C45.4172 160.216 44.093 161.23 43.9022 162.672L42.9735 169.702C42.6574 172.095 43.2921 174.468 44.761 176.384C49.6409 182.749 60.6206 180.32 61.6859 172.174L63.9097 155.339C72.8208 158.686 82.3527 160.44 92.1564 160.44C102.107 160.44 111.779 158.638 120.805 155.193C120.805 155.193 122.595 171.926 122.598 171.952C123.463 180.042 134.432 182.756 139.413 176.58C140.929 174.701 141.622 172.344 141.365 169.944L138.754 145.535C142.324 142.977 145.713 140.112 148.88 136.944C164.031 121.792 172.375 101.647 172.375 80.2195ZM154.418 39.2344C152.659 35.5994 149.804 31.4859 145.266 28.7177C149.805 25.9488 152.659 21.8361 154.418 18.201C156.176 21.8364 159.031 25.9495 163.569 28.7177C159.031 31.4866 156.176 35.5994 154.418 39.2344ZM143.608 80.2195C143.608 90.8395 140.372 100.716 134.836 108.92L132.837 90.2325L127.799 43.1523C137.537 52.5197 143.608 65.6725 143.608 80.2195ZM113.164 25.3201C113.214 24.2755 113.705 23.2821 114.517 22.6186C116.774 20.7928 120.265 22.2607 120.57 25.1023C120.571 25.1188 127.318 88.1739 127.318 88.1739L119.028 89.0608L118.26 81.8932C118.015 79.5922 116.907 77.5001 115.144 76.0024L112.307 73.5925C111.435 72.8517 110.947 71.7267 111.002 70.5837C111.002 70.5833 113.164 25.3204 113.164 25.3201ZM92.1564 28.7672C97.5399 28.7672 102.731 29.6036 107.611 31.1448L105.739 70.3318C105.607 73.0958 106.787 75.8155 108.896 77.6076C110.502 78.9722 112.7 80.1974 113.022 82.4538L114.069 92.2406L117.567 124.936C110.066 129.217 101.394 131.671 92.1564 131.671C83.3674 131.671 75.0889 129.452 67.8444 125.551L72.184 92.6976L73.8054 80.4253C73.8876 79.8033 74.2954 79.2771 74.8444 79.0853C79.8802 77.3227 83.5996 72.6617 84.32 67.2107L88.3899 36.4002C88.5459 35.2204 88.2329 34.05 87.5086 33.1052C86.7844 32.1603 85.7355 31.554 84.5553 31.3984L78.5276 30.6022C82.8697 29.4072 87.4394 28.7672 92.1564 28.7672ZM55.093 77.9539L53.472 90.2262L50.7621 110.741C44.4449 102.196 40.7041 91.6372 40.7041 80.2195C40.7041 69.3315 44.1049 59.2233 49.8984 50.899L48.3708 62.4621C47.6507 67.9135 50.0322 73.3803 54.4376 76.3895C54.9181 76.7175 55.1755 77.3315 55.093 77.9539ZM59.0403 88.3045L60.3164 78.6438C60.6617 76.0305 59.5479 73.4994 57.4095 72.0386C54.6293 70.1397 53.1316 66.6511 53.5939 63.1516L57.5574 33.1466L62.4776 33.7968L59.1664 58.8639C58.976 60.3062 59.9908 61.63 61.4334 61.8208C61.5503 61.8362 61.6666 61.8436 61.7815 61.8436C63.0832 61.8436 64.2149 60.8791 64.3898 59.5538L67.701 34.4866L72.916 35.1754L69.6048 60.2426C69.4144 61.6848 70.4292 63.0087 71.8718 63.1994C71.9887 63.2149 72.105 63.2222 72.2199 63.2222C73.5216 63.2222 74.6533 62.2577 74.8282 60.9324L78.1395 35.8649L83.0597 36.5147L79.0962 66.5198C78.634 70.0192 76.2817 72.9992 73.1036 74.1113C70.6596 74.9669 68.9266 77.1215 68.5816 79.7348L67.3055 89.3951L59.0403 88.3045ZM92.1564 155.171C82.4401 155.171 73.1521 153.307 64.6248 149.926L67.1124 131.095C74.6705 134.832 83.1704 136.94 92.1564 136.94C101.53 136.94 110.376 134.649 118.174 130.606L120.218 149.711C111.546 153.226 102.075 155.171 92.1564 155.171ZM135.312 173.271C134.436 174.358 133.224 174.605 131.984 174.737C129.916 174.958 128.058 173.457 127.837 171.391L119.588 94.2996L127.878 93.4127L136.126 170.504C136.233 171.505 135.944 172.488 135.312 173.271Z" fill="white"/>
<path d="M33.257 147.095C27.8923 145.089 25.5263 139.794 24.5931 136.816C24.1663 135.455 22.9201 134.54 21.4919 134.54C20.0637 134.54 18.8175 135.455 18.3907 136.816V136.817C17.4578 139.794 15.0914 145.089 9.72788 147.094C8.44793 147.572 7.62109 148.767 7.62109 150.137C7.62109 151.506 8.44793 152.701 9.72683 153.178C15.0914 155.184 17.4575 160.479 18.3907 163.457C18.8175 164.819 20.0637 165.733 21.4919 165.733C22.9201 165.733 24.1663 164.819 24.5931 163.457C25.526 160.479 27.892 155.184 33.2559 153.179C34.5359 152.701 35.3627 151.506 35.3627 150.137C35.3627 148.767 34.5355 147.573 33.257 147.095ZM21.4919 157.287C20.1456 154.785 18.1508 152.122 15.2337 150.137C18.1512 148.152 20.1456 145.489 21.4919 142.987C22.8382 145.489 24.833 148.152 27.7501 150.137C24.833 152.121 22.8386 154.785 21.4919 157.287Z" fill="white"/>
</g>
<defs>
<clipPath id="clip0">
<rect width="180" height="180" fill="white"/>
</clipPath>
</defs>
</svg>
