<svg width="35" height="34" viewBox="0 0 35 34" fill="none" xmlns="http://www.w3.org/2000/svg">
<g clip-path="url(#clip0)">
<path d="M24.0889 0H11.3389C5.47174 0 0.713867 4.75787 0.713867 10.625V23.375C0.713867 29.2421 5.47174 34 11.3389 34H24.0889C29.956 34 34.7139 29.2421 34.7139 23.375V10.625C34.7139 4.75787 29.956 0 24.0889 0ZM31.5264 23.375C31.5264 27.4762 28.1901 30.8125 24.0889 30.8125H11.3389C7.23762 30.8125 3.90137 27.4762 3.90137 23.375V10.625C3.90137 6.52375 7.23762 3.1875 11.3389 3.1875H24.0889C28.1901 3.1875 31.5264 6.52375 31.5264 10.625V23.375Z" fill="white"/>
<path d="M17.7139 8.5C13.0197 8.5 9.21387 12.3059 9.21387 17C9.21387 21.6941 13.0197 25.5 17.7139 25.5C22.408 25.5 26.2139 21.6941 26.2139 17C26.2139 12.3059 22.408 8.5 17.7139 8.5ZM17.7139 22.3125C14.7856 22.3125 12.4014 19.9283 12.4014 17C12.4014 14.0696 14.7856 11.6875 17.7139 11.6875C20.6421 11.6875 23.0264 14.0696 23.0264 17C23.0264 19.9283 20.6421 22.3125 17.7139 22.3125Z" fill="white"/>
<path d="M26.8514 8.9951C27.4769 8.9951 27.984 8.48801 27.984 7.86248C27.984 7.23695 27.4769 6.72986 26.8514 6.72986C26.2258 6.72986 25.7188 7.23695 25.7188 7.86248C25.7188 8.48801 26.2258 8.9951 26.8514 8.9951Z" fill="white"/>
</g>
<defs>
<clipPath id="clip0">
<rect width="34" height="34" fill="white" transform="translate(0.713867)"/>
</clipPath>
</defs>
</svg>
