<svg width="100" height="50" viewBox="0 0 100 50" fill="none" xmlns="http://www.w3.org/2000/svg">
<g clip-path="url(#clip0)">
<path d="M49.9872 3.1788C49.9962 2.33622 49.6612 1.51269 49.0681 0.91943C48.4753 0.326561 47.6852 0 46.8431 0C45.9961 0 45.2116 0.331835 44.6343 0.934371L42.467 3.19716L41.575 4.14188L32.2237 1.29238C31.8786 1.1872 31.5039 1.28085 31.2489 1.53603L29.2643 3.52098C29.0521 3.73329 28.9491 4.03153 28.9856 4.32957C29.0219 4.62772 29.1932 4.89246 29.4503 5.04764L36.5784 9.35055L35.1744 10.8252C31.3687 7.8943 26.6729 6.28962 21.8497 6.28962C16.0135 6.28962 10.5265 8.56295 6.39964 12.6909C2.27276 16.8188 0 22.307 0 28.1447C0 33.9825 2.27276 39.4708 6.39964 43.5988C10.5265 47.7267 16.0135 50 21.8497 50C27.6859 50 33.1728 47.7267 37.2997 43.5988C41.4265 39.4708 43.6993 33.9825 43.6993 28.1447C43.6993 26.8665 43.5865 25.5973 43.3665 24.351C43.3608 24.2841 43.3487 24.2185 43.3298 24.155C42.7003 20.7702 41.2778 17.5619 39.165 14.8168L40.6393 13.4124L44.941 20.5423C45.0961 20.7994 45.3608 20.9708 45.6588 21.0071C45.956 21.0428 46.2549 20.9406 46.4671 20.7283L48.4518 18.7434C48.7064 18.4888 48.8002 18.1147 48.696 17.7699L45.864 8.41071L49.0532 5.35447C49.6466 4.78582 49.9782 4.01317 49.9872 3.1788ZM15.9562 47.1556C7.85327 44.6371 1.95263 37.0672 1.95263 28.1447C1.95263 25.4504 2.49175 22.8801 3.46601 20.5342C4.6987 21.4133 6.55174 21.5582 8.24516 21.6899C11.2479 21.9233 12.242 22.2037 12.2118 23.4039C12.1845 24.4921 11.0126 25.402 9.77182 26.3654C8.03818 27.7114 5.88063 29.3866 6.52763 32.2226C7.18967 35.1253 9.5046 35.2571 11.3648 35.3629C12.5071 35.4279 13.6883 35.4952 14.7639 36.0385C15.9283 36.6266 16.8091 37.7177 17.2443 39.1109C17.7311 40.6693 17.8752 43.3031 15.9562 47.1556ZM41.7466 28.1446C41.7467 35.016 38.2471 41.0848 32.9374 44.6625C31.5618 42.8724 31.6956 41.9867 31.8494 40.9782C31.967 40.2067 32.1004 39.3322 31.6898 38.1874C31.2681 37.0122 30.3346 35.7522 28.7532 34.224L28.5396 33.9952C27.5227 32.9074 26.7193 32.0482 26.5634 31.1938C26.4619 30.6374 26.532 29.6754 28.306 27.7531C28.7677 27.2528 29.1956 27.0035 29.6141 26.9909C30.4926 26.9669 31.5386 27.967 32.4587 28.8515C33.6829 30.0284 35.0704 31.3621 36.579 30.4705C37.6006 29.8667 38.126 28.7385 38.6341 27.6473C39.4602 25.8732 39.9743 24.9484 41.5295 25.2241C41.6727 26.1867 41.7466 27.1628 41.7466 28.1446ZM41.1267 23.2257C38.5708 23.1591 37.5654 25.3163 36.864 26.8226C36.4639 27.6818 36.0861 28.4932 35.5857 28.789C35.5739 28.796 35.5685 28.7975 35.5685 28.7975C35.5667 28.797 35.4265 28.8076 35.0576 28.5469C34.6856 28.2837 34.2611 27.8756 33.8116 27.4434C32.6142 26.2926 31.2611 24.9878 29.5555 25.0388C28.5988 25.0674 27.6955 25.535 26.8711 26.4284C25.045 28.4072 24.3576 29.9851 24.6424 31.5449C24.9015 32.9635 25.9264 34.0599 27.1133 35.3294L27.3426 35.5751C27.3545 35.5877 27.3667 35.6002 27.3792 35.6123C30.2676 38.3983 30.1061 39.4575 29.919 40.6839C29.7384 41.8683 29.5202 43.3114 31.2601 45.6763C28.4565 47.188 25.2516 48.0471 21.8495 48.0471C20.4928 48.0469 19.1676 47.9099 17.8864 47.6498C19.8977 43.4129 19.6859 40.3775 19.1081 38.5284C18.514 36.6268 17.2838 35.1234 15.6441 34.2951C14.2054 33.5684 12.7551 33.4858 11.4757 33.4131C9.46292 33.2984 8.7505 33.1876 8.43134 31.7882C8.08622 30.2753 9.15987 29.3131 10.9692 27.9083C12.4429 26.7641 14.1133 25.4672 14.164 23.4529C14.1896 22.4333 13.8475 21.0697 12.0722 20.364C11.0225 19.9468 9.68747 19.843 8.39659 19.7427C6.72045 19.6124 4.99462 19.4776 4.34381 18.6923C7.71287 12.4747 14.2964 8.24274 21.8497 8.24274C26.0833 8.24274 30.2092 9.59996 33.6047 12.088L31.4374 11.9321C31.1565 11.9127 30.8775 12.0152 30.677 12.2156L29.0067 13.8864C28.7836 14.1096 28.682 14.4269 28.7342 14.7382C28.7862 15.0495 28.9856 15.3164 29.2692 15.4547L32.8102 17.1816L34.5367 20.7234C34.6749 21.007 34.9418 21.2064 35.253 21.2585C35.3068 21.2676 35.3606 21.272 35.4142 21.272C35.671 21.272 35.92 21.1706 36.1045 20.986L37.7748 19.3154C37.9752 19.115 38.0786 18.8374 38.0583 18.5548L37.9023 16.3868C39.4092 18.4445 40.4999 20.7705 41.1267 23.2257ZM47.7024 3.94422L44.0805 7.41501C43.8151 7.66931 43.715 8.05124 43.8215 8.40299L46.6576 17.7759L45.9683 18.4653L41.6826 11.3619C41.5297 11.1084 41.2699 10.9379 40.9766 10.8986C40.6824 10.859 40.3877 10.9551 40.1734 11.1593L36.1976 14.9465C35.9864 15.1477 35.8762 15.4328 35.8971 15.7237L36.0787 18.2498L35.6918 18.6368L34.4178 16.0233C34.3222 15.8274 34.1639 15.669 33.968 15.5736L31.3553 14.2995L31.7422 13.9123L34.2677 14.094C34.5575 14.1139 34.8435 14.0046 35.0448 13.7934L38.8308 9.81656C39.035 9.60211 39.1308 9.3066 39.0915 9.01315C39.0521 8.71969 38.8818 8.45993 38.6283 8.307L31.5267 4.0202L32.2151 3.33173L41.5848 6.18669C41.9394 6.2948 42.3245 6.19265 42.5792 5.92302L43.8818 4.54334L46.0441 2.28573C46.2495 2.07128 46.5333 1.95321 46.8431 1.95321C47.159 1.95321 47.4667 2.07987 47.6874 2.30067C47.9116 2.52489 48.0382 2.83739 48.0348 3.158C48.0315 3.46268 47.9134 3.74188 47.7024 3.94422Z" fill="white"/>
<path d="M15.35 11.9103C15.1219 11.4218 14.541 11.2104 14.0524 11.4386C12.1004 12.3502 10.3385 13.5847 8.81572 15.1079C8.43447 15.4893 8.43447 16.1076 8.81572 16.489C9.0064 16.6797 9.25623 16.7751 9.50607 16.7751C9.75591 16.7751 10.0058 16.6797 10.1964 16.489C11.5578 15.1271 13.1331 14.0234 14.8783 13.2084C15.3669 12.9802 15.578 12.3991 15.35 11.9103Z" fill="white"/>
<path d="M17.2808 12.1094C17.8201 12.1094 18.2573 11.6721 18.2573 11.1328C18.2573 10.5935 17.8201 10.1562 17.2808 10.1562C16.7414 10.1562 16.3042 10.5935 16.3042 11.1328C16.3042 11.6721 16.7414 12.1094 17.2808 12.1094Z" fill="white"/>
</g>
<path fill-rule="evenodd" clip-rule="evenodd" d="M67.9828 17H57.9854V22H67.9828V48H72.9816V22H81.9793V17H72.9816H67.9828Z" fill="white"/>
<path fill-rule="evenodd" clip-rule="evenodd" d="M90.1099 43.0503L89.9774 17L84.9787 17.0254L85.1112 43.0757L75.981 43.1222L76.0064 48.1221L100 48L99.9746 43.0001L90.1099 43.0503Z" fill="white"/>
<defs>
<clipPath id="clip0">
<rect width="49.9874" height="50" fill="white"/>
</clipPath>
</defs>
</svg>
