<svg width="180" height="180" viewBox="0 0 180 180" fill="none" xmlns="http://www.w3.org/2000/svg">
<g clip-path="url(#clip0)">
<path d="M174.487 76.0213H163.759C161.771 76.0213 160.018 77.043 158.994 78.5866C150.793 77.7296 149.7 76.4154 148.814 75.3442C147.608 73.8872 146.178 72.6512 144.563 71.6707L119.912 56.6963C114.891 45.0343 106.493 37.7435 100.261 33.6566C97.8345 32.065 96.3857 29.3692 96.3857 26.4455C96.3857 24.7206 96.8938 23.0534 97.8551 21.6225L103.985 12.4983C105.208 10.6815 105.629 8.50067 105.175 6.35834C104.72 4.216 103.449 2.39502 101.595 1.2291C100.313 0.42572 98.837 0 97.3264 0H68.1989C66.6869 0 65.2106 0.42572 63.9307 1.2291C62.0767 2.39365 60.8051 4.21463 60.3505 6.35834C59.896 8.50067 60.3176 10.6815 61.5398 12.4983L67.6702 21.6225C68.6315 23.0534 69.1396 24.7206 69.1396 26.4455C69.1396 29.3692 67.6908 32.065 65.2642 33.6566C56.0288 39.7128 35.391 57.5629 43.194 92.4486C47.546 111.907 50.9078 125.62 52.9293 132.219H9.45223C5.86657 132.219 2.73135 134.768 1.99938 138.278L0.513481 145.411C0.0438156 147.664 0.606865 149.981 2.05981 151.768C3.51138 153.553 5.6647 154.578 7.96633 154.578H157.559C159.862 154.578 162.014 153.553 163.467 151.768C164.918 149.981 165.481 147.664 165.012 145.411L163.526 138.278C162.794 134.768 159.659 132.219 156.073 132.219H112.596C113.2 130.246 113.929 127.62 114.774 124.368H117.636C126.034 124.368 134.356 123.114 142.379 120.641L158.766 118.575C159.745 120.325 161.614 121.513 163.759 121.513H174.487C177.639 121.513 180.204 118.949 180.204 115.796V81.7397C180.204 78.5866 177.639 76.0213 174.487 76.0213ZM65.51 7.45285C65.6652 6.71814 66.1005 6.09467 66.7363 5.69504C67.1758 5.41901 67.6811 5.27344 68.1989 5.27344H97.3264C97.8441 5.27344 98.3509 5.41901 98.7889 5.69504C99.4248 6.09467 99.8601 6.71814 100.017 7.45285C100.172 8.18619 100.026 8.93463 99.6088 9.55673L96.5752 14.0721H68.9501L65.9165 9.55673C65.4976 8.93463 65.3534 8.18619 65.51 7.45285ZM68.1549 38.0663C72.0743 35.4968 74.4144 31.1517 74.4144 26.4455C74.4144 23.931 73.736 21.4948 72.4588 19.3456H93.0664C91.7893 21.4948 91.1122 23.931 91.1122 26.4455C91.1122 31.1517 93.451 35.4968 97.3703 38.0663C98.9853 39.1251 100.761 40.4214 102.579 41.9801H62.9611C64.8068 40.3954 66.5866 39.0948 68.1549 38.0663ZM158.364 139.355L159.85 146.488C160.047 147.435 159.637 148.118 159.374 148.44C159.112 148.763 158.527 149.304 157.559 149.304H7.96633C6.99816 149.304 6.41314 148.763 6.15084 148.44C5.88854 148.118 5.47793 147.435 5.67568 146.488L7.16158 139.355C7.3868 138.275 8.35085 137.493 9.45223 137.493H156.072C157.174 137.493 158.137 138.275 158.364 139.355ZM107.062 132.219H58.4636C57.3773 128.982 54.6198 119.366 48.3397 91.2964C45.692 79.46 46.3251 68.7442 50.2088 59.3674H59.9221C61.3791 59.3674 62.5588 58.1877 62.5588 56.7307C62.5588 55.2736 61.3791 54.0939 59.9221 54.0939H52.8235C54.3122 51.5286 55.9683 49.2558 57.6863 47.2536H107.858C109.58 49.2613 111.232 51.5355 112.713 54.0939H70.4827C69.0256 54.0939 67.8459 55.2736 67.8459 56.7307C67.8459 58.1877 69.0256 59.3674 70.4827 59.3674H105.425C104.753 61.0085 104.616 62.813 105.046 64.568C105.585 66.7612 106.946 68.6151 108.874 69.7824L113.408 72.5359H84.1016C79.4475 72.5359 75.6737 76.116 75.5117 80.6863C75.4677 81.9031 75.6792 83.0855 76.1214 84.1759H73.4174C71.1006 84.1759 68.9405 85.0932 67.331 86.7604C65.7242 88.4262 64.8824 90.6207 64.9661 92.9388C65.0939 96.5602 67.4903 99.5595 70.7958 100.65C70.2725 101.749 69.98 102.976 69.98 104.273C69.98 108.935 73.7744 112.729 78.4368 112.729H82.4317C82.0307 113.713 81.8096 114.788 81.8096 115.913C81.8096 120.576 85.604 124.369 90.2663 124.369H109.323C108.215 128.561 107.502 130.91 107.062 132.219ZM141.49 115.437C141.335 115.457 141.184 115.49 141.035 115.535C133.452 117.897 125.579 119.095 117.636 119.095H90.2663C88.5112 119.095 87.083 117.666 87.083 115.911C87.083 114.156 88.5112 112.728 90.2663 112.728H107.549C109.005 112.728 110.186 111.547 110.186 110.091C110.186 108.634 109.005 107.455 107.549 107.455H78.4368C76.6817 107.455 75.2535 106.026 75.2535 104.271C75.2535 102.516 76.6817 101.088 78.4368 101.088H107.549C109.005 101.088 110.186 99.9083 110.186 98.4512C110.186 96.9942 109.005 95.8145 107.549 95.8145H73.5561C71.7845 95.8145 70.2959 94.4398 70.2355 92.7493C70.2053 91.8759 70.5211 91.0478 71.1254 90.4202C71.7324 89.794 72.5453 89.4479 73.4174 89.4479H107.549C109.005 89.4479 110.186 88.2669 110.186 86.8112C110.186 85.3542 109.005 84.1745 107.549 84.1745H83.9629C83.0908 84.1745 82.2765 83.8284 81.6709 83.2008C81.0666 82.5746 80.7508 81.7465 80.781 80.8717C80.8414 79.1826 82.3314 77.8079 84.1016 77.8079H120.446C121.944 77.8079 123.223 76.8384 123.628 75.3951C124.031 73.9517 123.442 72.459 122.161 71.6817L111.61 65.2725C110.882 64.8317 110.371 64.1354 110.168 63.3087C109.965 62.4834 110.095 61.6278 110.536 60.9013C111.445 59.399 113.408 58.9183 114.906 59.8247L141.827 76.1765C142.938 76.8507 143.921 77.7022 144.75 78.7047C146.906 81.3098 149.675 82.8726 158.041 83.7872V113.349L141.49 115.437ZM174.931 115.796C174.931 116.04 174.732 116.239 174.487 116.239H163.759C163.515 116.239 163.314 116.04 163.314 115.796V81.7383C163.314 81.4938 163.514 81.2947 163.759 81.2947H174.487C174.732 81.2947 174.931 81.4938 174.931 81.7383V115.796Z" fill="white"/>
<path d="M126.432 171.494L112.699 160.446C111.565 159.532 109.904 159.714 108.992 160.848C108.079 161.982 108.259 163.643 109.393 164.555L122.039 174.727H43.4865L56.1578 164.534C57.2922 163.622 57.4721 161.962 56.5588 160.827C55.647 159.692 53.9867 159.513 52.8523 160.425L39.0933 171.492C37.4907 172.782 36.8974 174.868 37.58 176.807C38.2625 178.746 40.034 180 42.0898 180H123.435C125.491 180 127.261 178.748 127.945 176.807C128.628 174.868 128.035 172.782 126.432 171.494Z" fill="white"/>
</g>
<defs>
<clipPath id="clip0">
<rect width="180" height="180" fill="white"/>
</clipPath>
</defs>
</svg>
