<svg width="90" height="90" viewBox="0 0 90 90" fill="none" xmlns="http://www.w3.org/2000/svg">
<path d="M44.9992 45.0734C55.0242 45.0734 63.1801 36.9008 63.1801 26.8554C63.1801 16.81 55.0244 8.63745 44.9992 8.63745C34.9742 8.63745 26.8184 16.81 26.8184 26.8554C26.8184 36.9008 34.9742 45.0734 44.9992 45.0734ZM44.9992 11.2743C53.5703 11.2743 60.5434 18.2641 60.5434 26.8556C60.5434 35.4471 53.5703 42.4369 44.9992 42.4369C36.4281 42.4369 29.4551 35.4471 29.4551 26.8556C29.4551 18.2639 36.4281 11.2743 44.9992 11.2743Z" fill="white"/>
<path d="M44.4254 36.8222C44.7878 36.9974 45.2106 36.9974 45.5731 36.8222C46.0183 36.6068 56.4666 31.4622 55.4258 23.895C54.9049 20.108 52.2127 18.5471 49.8667 18.349C47.9732 18.1893 46.1885 18.8229 44.9993 19.9632C43.8101 18.8229 42.0272 18.1892 40.1319 18.349C37.786 18.5471 35.0937 20.1082 34.5729 23.895C33.5321 31.4622 43.9801 36.6068 44.4254 36.8222ZM37.1848 24.2543C37.5629 21.5053 39.5269 21.0461 40.3538 20.9764C40.4673 20.9667 40.5803 20.9621 40.693 20.9621C42.1117 20.9621 43.4136 21.7073 43.7419 22.7493C43.9149 23.2983 44.424 23.6714 44.9993 23.6714C45.5746 23.6714 46.0837 23.2983 46.2567 22.7493C46.611 21.6246 48.0999 20.8449 49.6447 20.9764C50.4715 21.0461 52.4355 21.5055 52.8136 24.2543C53.2069 27.1145 51.0038 29.6833 49.0864 31.3346C47.5075 32.6943 45.8478 33.6797 44.9991 34.1462C44.1501 33.6797 42.4907 32.6943 40.9119 31.3346C38.9946 29.6833 36.7916 27.1146 37.1848 24.2543Z" fill="white"/>
<path d="M89.8996 88.1849L79.4186 61.7247C79.2778 61.3691 78.9897 61.0921 78.6292 60.9652L62.3311 55.2308C62.0808 55.1456 61.805 55.1308 61.5498 55.2013L59.0783 55.8659C65.4709 48.1068 71.7595 37.7065 71.7595 26.8175C71.7593 12.0303 59.7551 0 45 0C38.439 0 32.1276 2.40346 27.2285 6.76776C26.6838 7.25309 26.6356 8.08787 27.1208 8.63262C27.6061 9.17719 28.4409 9.22553 28.9855 8.74037C33.4 4.80744 39.0876 2.64164 45 2.64164C58.2985 2.64164 69.1179 13.487 69.1179 26.8175C69.1179 34.3151 65.8803 42.4728 59.4956 51.0641C57.8049 53.3391 56.048 55.4335 54.3463 57.3112C54.309 57.3474 54.2746 57.3863 54.2419 57.4265C50.8289 61.1791 47.6483 64.0494 45.6859 65.7172C45.2888 66.0537 44.7112 66.0537 44.3143 65.7172C42.3519 64.0494 39.1713 61.1791 35.7583 57.4265C35.7256 57.3863 35.6912 57.3476 35.6539 57.3112C33.952 55.4335 32.1952 53.3389 30.5046 51.0641C24.1197 42.4728 20.8823 34.3151 20.8823 26.8175C20.8823 21.587 22.5209 16.6094 25.6214 12.4226C26.0554 11.8364 25.9322 11.0094 25.3461 10.5752C24.7599 10.1412 23.933 10.2642 23.4986 10.8506C20.059 15.4955 18.2409 21.0168 18.2409 26.8175C18.2409 37.7065 24.5294 48.1069 30.9221 55.8659L28.4504 55.2013C28.1934 55.1322 27.9206 55.1463 27.6692 55.2308L11.3712 60.9652C11.0105 61.0921 10.7225 61.3691 10.5817 61.7247L4.84652 76.2038C4.57792 76.882 4.9098 77.6496 5.58796 77.9182C6.2656 78.1872 7.03359 77.8551 7.30218 77.1768L12.8157 63.2574L26.4373 58.4649L22.837 80.0712L3.60251 86.5164L5.35962 82.0802C5.62822 81.402 5.29634 80.6344 4.61818 80.3658C3.94019 80.097 3.17255 80.4293 2.90396 81.1072L0.10043 88.1849C-0.33621 89.1848 0.731659 90.3047 1.74785 89.9237L23.9921 82.4697L44.5504 89.9132C44.84 90.0167 45.1598 90.0167 45.4495 89.9132L66.0078 82.4697L88.252 89.9237C89.2683 90.3048 90.3362 89.1846 89.8996 88.1849ZM43.6794 86.7885L25.4927 80.2037L27.8445 66.0911L29.1709 58.1307L34.0255 59.4361C37.5275 63.2619 40.7479 66.153 42.6038 67.7303C42.9325 68.0098 43.2969 68.2205 43.6792 68.3677V86.7885H43.6794ZM67.1634 80.0712L66.2155 74.3838C66.0955 73.6643 65.4143 73.1781 64.6957 73.298C63.9763 73.4179 63.4901 74.0985 63.6099 74.818L64.5075 80.2037L46.3208 86.7885V68.3675C46.7031 68.2204 47.0677 68.0096 47.3962 67.7303C49.2523 66.153 52.4725 63.2619 55.9745 59.4359L60.8291 58.1305L62.7426 69.6136C62.8504 70.2596 63.4099 70.7175 64.0439 70.7175C64.116 70.7175 64.1891 70.7115 64.2624 70.6994C64.9819 70.5795 65.4681 69.8991 65.3482 69.1794L63.5628 58.4649L77.1844 63.2574L86.3975 86.5164L67.1634 80.0712Z" fill="white"/>
</svg>
