<svg width="175" height="175" viewBox="0 0 175 175" fill="none" xmlns="http://www.w3.org/2000/svg">
<g clip-path="url(#clip0)">
<path d="M167.45 69.1901L162.572 65.8282C162.43 65.7294 162.365 65.5933 162.38 65.421C162.396 65.2488 162.483 65.126 162.64 65.0552L166.594 63.2581C168.578 62.3555 169.861 60.3648 169.861 58.1845C169.861 45.1268 159.237 34.5044 146.181 34.5044H125.063C123.648 34.5044 122.499 35.6526 122.499 37.0679C122.499 38.4845 123.648 39.6314 125.063 39.6314H146.181C156.411 39.6314 164.734 47.9546 164.734 58.1845C164.734 58.3594 164.631 58.5183 164.472 58.5904L160.519 60.3875C158.667 61.2287 157.453 62.9417 157.273 64.9684C157.094 66.9952 157.988 68.8951 159.662 70.0486L164.54 73.4119C164.662 73.4946 164.733 73.6322 164.733 73.779V137.234C160.391 131.768 153.687 128.257 146.181 128.257H127.973C127.748 128.257 127.529 128.168 127.369 128.006L119.96 120.596C117.626 118.27 113.833 118.27 111.503 120.599L104.097 128.006C103.938 128.165 103.717 128.256 103.491 128.256H68.6689C67.2524 128.256 66.1055 129.404 66.1055 130.819C66.1055 132.236 67.2524 133.383 68.6689 133.383H103.492C105.09 133.383 106.592 132.76 107.722 131.631L115.129 124.223C115.462 123.891 116.004 123.892 116.336 124.223L123.738 131.627C124.849 132.743 126.393 133.384 127.973 133.384H143.617V168.999C143.617 170.8 144.416 172.49 145.806 173.636C146.887 174.526 148.222 175 149.592 175C149.971 175 150.354 174.964 150.735 174.89C161.639 172.764 169.595 163.264 169.846 152.189C169.856 152.105 169.86 73.779 169.86 73.779C169.86 71.9459 168.96 70.2302 167.45 69.1901ZM149.754 169.857C149.423 169.923 149.181 169.773 149.066 169.679C148.946 169.58 148.744 169.361 148.744 168.999V133.565C157.715 134.811 164.654 142.491 164.73 151.78C164.669 160.582 158.391 168.174 149.754 169.857Z" fill="white"/>
<path d="M57.506 128.257H29.1489C18.919 128.257 10.5957 119.934 10.5957 109.704V109.689C10.6037 100.481 17.4744 92.5887 26.5801 91.3297C29.5054 90.9291 31.7124 88.3803 31.7124 85.3976V69.4319C31.7124 67.4866 30.4814 65.7403 28.6495 65.0874L26.1221 64.1848L30.4627 59.5599C31.2691 58.7 31.7124 57.5798 31.7124 56.4023V39.6315H44.4897C47.1854 47.1043 53.1895 56.6306 58.4393 64.1902C59.6263 65.8978 61.5756 66.9165 63.6557 66.9165C65.7359 66.9165 67.6865 65.8978 68.8721 64.1902C74.1233 56.6306 80.1261 47.1043 82.8217 39.6315H113.9C115.317 39.6315 116.463 38.4833 116.463 37.068C116.463 35.6528 115.317 34.5045 113.9 34.5045H84.1556C84.2263 33.9518 84.2664 33.4231 84.2664 32.9224C84.2664 21.5576 75.0205 12.3117 63.6557 12.3117C52.291 12.3117 43.0451 21.5576 43.0451 32.9224C43.0451 33.4231 43.0851 33.9518 43.1559 34.5045H31.7124V6.00184C31.7124 4.19939 30.9126 2.50776 29.5201 1.36221C28.1369 0.224665 26.3411 -0.23062 24.5934 0.112513C13.5117 2.27144 5.46875 12.046 5.46875 23.3521V46.617C5.46875 48.0322 6.61698 49.1805 8.03223 49.1805C9.44748 49.1805 10.5957 48.0322 10.5957 46.617V23.3521C10.5957 14.4934 16.8949 6.83631 25.5787 5.14334C25.9072 5.07925 26.1488 5.22746 26.2623 5.32092C26.3825 5.42105 26.5841 5.64002 26.5841 6.00184V56.1993L21.847 61.2462C20.7789 62.385 20.3596 63.9712 20.7268 65.4879C21.094 67.006 22.1901 68.225 23.6601 68.7497L26.5841 69.7938V85.3976C26.5841 85.8222 26.2783 86.196 25.8818 86.2494C19.672 87.1079 14.278 90.3817 10.5957 95.0333V57.7801C10.5957 56.3649 9.44748 55.2166 8.03223 55.2166C6.61698 55.2166 5.46875 56.3649 5.46875 57.7801V109.717C5.47676 122.768 16.0965 133.384 29.1489 133.384H57.5047C58.9213 133.384 60.0682 132.236 60.0682 130.821C60.0682 129.404 58.9213 128.257 57.506 128.257ZM63.6557 17.4387C72.194 17.4387 79.1394 24.3841 79.1394 32.9224C79.1394 37.6181 73.7267 48.2138 64.6624 61.2649C64.3447 61.7215 63.8947 61.7909 63.6557 61.7909C63.4167 61.7909 62.9681 61.7228 62.6504 61.2649C53.5847 48.2138 48.1734 37.6181 48.1734 32.9224C48.1734 24.3841 55.1188 17.4387 63.6557 17.4387Z" fill="white"/>
<path d="M83.9043 64.3621H85.9551C87.3717 64.3621 88.5186 63.2139 88.5186 61.7986C88.5186 60.3833 87.3717 59.2351 85.9551 59.2351H83.9043C82.4891 59.2351 81.3408 60.3833 81.3408 61.7986C81.3408 63.2139 82.4891 64.3621 83.9043 64.3621Z" fill="white"/>
<path d="M109.994 86.801C111.411 86.801 112.558 85.6541 112.558 84.2376C112.558 82.8223 111.411 81.6741 109.994 81.6741H105.914C104.499 81.6741 103.351 82.8223 103.351 84.2376C103.351 85.6541 104.499 86.801 105.914 86.801H109.994Z" fill="white"/>
<path d="M117.078 61.7986C117.078 60.3833 115.931 59.2351 114.515 59.2351H110.435C109.019 59.2351 107.871 60.3833 107.871 61.7986C107.871 63.2139 109.019 64.3621 110.435 64.3621H114.515C115.931 64.3621 117.078 63.2152 117.078 61.7986Z" fill="white"/>
<path d="M120.193 86.801H124.273C125.688 86.801 126.837 85.6541 126.837 84.2376C126.837 82.8223 125.688 81.6741 124.273 81.6741H120.193C118.776 81.6741 117.629 82.8223 117.629 84.2376C117.629 85.6541 118.776 86.801 120.193 86.801Z" fill="white"/>
<path d="M128.797 64.3621C130.214 64.3621 131.36 63.2139 131.36 61.7986C131.36 60.3833 130.214 59.2351 128.797 59.2351H124.717C123.3 59.2351 122.153 60.3833 122.153 61.7986C122.153 63.2139 123.3 64.3621 124.717 64.3621H128.797Z" fill="white"/>
<path d="M100.238 64.3621C101.653 64.3621 102.801 63.2139 102.801 61.7986C102.801 60.3833 101.653 59.2351 100.238 59.2351H96.1577C94.7411 59.2351 93.5942 60.3833 93.5942 61.7986C93.5942 63.2139 94.7411 64.3621 96.1577 64.3621H100.238Z" fill="white"/>
<path d="M89.0688 84.2376C89.0688 85.6541 90.2157 86.801 91.6323 86.801H95.7125C97.1278 86.801 98.276 85.6541 98.276 84.2376C98.276 82.8223 97.1278 81.6741 95.7125 81.6741H91.6323C90.2157 81.6741 89.0688 82.8223 89.0688 84.2376Z" fill="white"/>
<path d="M74.7905 84.2376C74.7905 85.6541 75.9388 86.801 77.354 86.801H81.4342C82.8508 86.801 83.9977 85.6541 83.9977 84.2376C83.9977 82.8223 82.8508 81.6741 81.4342 81.6741H77.354C75.9388 81.6741 74.7905 82.8223 74.7905 84.2376Z" fill="white"/>
<path d="M143.458 76.256C142.928 77.5698 143.562 79.0625 144.875 79.5925C145.19 79.7207 145.514 79.7794 145.833 79.7794C146.848 79.7794 147.808 79.1733 148.211 78.1759C148.839 76.6205 149.174 74.9769 149.207 73.2893C149.234 71.874 148.108 70.7044 146.693 70.6777C146.676 70.6777 146.66 70.6777 146.642 70.6777C145.25 70.6777 144.108 71.7926 144.08 73.1905C144.06 74.2519 143.851 75.2827 143.458 76.256Z" fill="white"/>
<path d="M144.112 62.316C142.805 61.2532 141.333 60.4481 139.738 59.9234C138.392 59.4801 136.945 60.2118 136.502 61.5576C136.058 62.9021 136.79 64.3508 138.134 64.794C139.134 65.1225 140.057 65.6285 140.88 66.2961C141.355 66.6819 141.926 66.8702 142.494 66.8702C143.24 66.8702 143.978 66.5458 144.486 65.9222C145.378 64.8234 145.211 63.2092 144.112 62.316Z" fill="white"/>
<path d="M134.473 81.6742C133.058 81.6742 131.91 82.8224 131.91 84.2376C131.91 85.6542 133.058 86.8011 134.473 86.8011H135.425C136.714 86.8011 137.989 86.6236 139.217 86.2724C140.579 85.8839 141.366 84.4646 140.978 83.1041C140.589 81.7422 139.17 80.9532 137.808 81.343C137.038 81.5633 136.236 81.6742 135.425 81.6755H134.473V81.6742Z" fill="white"/>
<path d="M67.1535 86.801C68.5687 86.801 69.717 85.6541 69.717 84.2376C69.717 82.8223 68.5687 81.6741 67.1535 81.6741H63.0733C61.6567 81.6741 60.5098 82.8223 60.5098 84.2376C60.5098 85.6541 61.6567 86.801 63.0733 86.801H67.1535Z" fill="white"/>
<path d="M49.2186 88.8699C49.7193 88.8699 50.2253 88.723 50.6699 88.4173C51.5525 87.8111 52.5218 87.3678 53.5538 87.0981C54.9237 86.7416 55.7448 85.3424 55.3883 83.9725C55.0319 82.6026 53.6326 81.7802 52.2614 82.1366C50.6512 82.5559 49.1385 83.2488 47.7633 84.1941C46.5977 84.9966 46.3027 86.5934 47.1051 87.759C47.6018 88.4813 48.4029 88.8699 49.2186 88.8699Z" fill="white"/>
<path d="M49.4885 108.854C50.9785 109.597 52.574 110.07 54.2296 110.261C54.3297 110.272 54.4285 110.278 54.526 110.278C55.8104 110.278 56.9199 109.314 57.0694 108.007C57.231 106.6 56.2216 105.329 54.8157 105.167C53.7543 105.045 52.7315 104.741 51.7769 104.265C50.5099 103.633 48.9704 104.149 48.3389 105.416C47.7061 106.683 48.2214 108.222 49.4885 108.854Z" fill="white"/>
<path d="M44.4271 92.2523C43.0185 92.1054 41.7595 93.1321 41.6153 94.5407C41.5659 95.0267 41.5405 95.5234 41.5405 96.016C41.5405 97.1816 41.6807 98.3418 41.9584 99.4647C42.2468 100.633 43.2936 101.414 44.4458 101.414C44.6488 101.414 44.8557 101.39 45.0627 101.339C46.4365 100.999 47.275 99.6102 46.9359 98.235C46.7583 97.514 46.6675 96.7677 46.6675 96.016C46.6675 95.6969 46.6835 95.3765 46.7156 95.0627C46.8598 93.6542 45.8357 92.3965 44.4271 92.2523Z" fill="white"/>
<path d="M69.3779 107.793C69.3779 106.377 68.231 105.23 66.8144 105.23H64.7637C63.3484 105.23 62.2002 106.377 62.2002 107.793C62.2002 109.209 63.3484 110.357 64.7637 110.357H66.8144C68.231 110.357 69.3779 109.209 69.3779 107.793Z" fill="white"/>
<path d="M104.509 100.389C104.509 98.6597 103.835 97.0348 102.613 95.8118C100.088 93.2884 95.9828 93.287 93.4594 95.8118L90.6316 98.6383L87.8051 95.8118C85.2803 93.287 81.1748 93.287 78.6514 95.8118C76.1279 98.3352 76.1279 102.441 78.6514 104.966L81.4779 107.792L78.6514 110.62C76.1279 113.143 76.1279 117.25 78.6514 119.774C81.1748 122.297 85.2803 122.297 87.8051 119.774L90.6316 116.947L93.4594 119.774C94.7211 121.035 96.3794 121.667 98.0363 121.667C99.6945 121.667 101.351 121.035 102.613 119.774C103.836 118.552 104.509 116.926 104.509 115.197C104.509 113.468 103.836 111.843 102.613 110.62L99.7867 107.792L102.613 104.966C103.835 103.743 104.509 102.118 104.509 100.389ZM94.3473 109.605L98.9882 114.245C99.2419 114.5 99.3821 114.838 99.3821 115.197C99.3821 115.556 99.2419 115.895 98.9882 116.149C98.4635 116.673 97.609 116.673 97.0843 116.149L92.4447 111.509C91.4434 110.508 89.8212 110.508 88.8198 111.509L84.1802 116.149C83.6555 116.673 82.801 116.673 82.2763 116.149C81.7516 115.624 81.7516 114.77 82.2763 114.245L86.9159 109.605C87.9172 108.604 87.9172 106.982 86.9159 105.98L82.2763 101.341C81.7516 100.816 81.7516 99.9614 82.2763 99.4367C82.5393 99.175 82.8838 99.0442 83.2282 99.0442C83.5727 99.0442 83.9172 99.175 84.1802 99.4367L88.8198 104.078C89.8212 105.078 91.4434 105.078 92.4447 104.078L97.0843 99.4367C97.609 98.912 98.4635 98.912 98.9882 99.4367C99.2419 99.6917 99.3821 100.03 99.3821 100.389C99.3821 100.748 99.2419 101.087 98.9882 101.341L94.3473 105.98C93.3473 106.982 93.3473 108.604 94.3473 109.605Z" fill="white"/>
<path d="M73.2886 32.2114C73.2886 26.8989 68.9681 22.5784 63.6555 22.5784C58.3443 22.5784 54.0225 26.9002 54.0225 32.2114C54.0225 37.5226 58.3443 41.8445 63.6555 41.8445C68.9681 41.8445 73.2886 37.5226 73.2886 32.2114ZM59.1494 32.2114C59.1494 29.7267 61.1708 27.7053 63.6555 27.7053C66.1402 27.7053 68.1616 29.7267 68.1616 32.2114C68.1616 34.6961 66.1402 36.7176 63.6555 36.7176C61.1708 36.7176 59.1494 34.6961 59.1494 32.2114Z" fill="white"/>
</g>
<defs>
<clipPath id="clip0">
<rect width="175" height="175" fill="white"/>
</clipPath>
</defs>
</svg>
