<svg width="175" height="175" viewBox="0 0 175 175" fill="none" xmlns="http://www.w3.org/2000/svg">
<g clip-path="url(#clip0)">
<path d="M74.3515 130.892C72.5444 129.085 69.7202 128.912 67.7114 130.361L53.6793 108.441C52.1252 106.013 49.2961 104.811 46.4671 105.376C42.7425 106.122 40.3362 109.637 40.9898 113.38L43.1574 125.797C43.3799 127.072 42.8953 128.298 41.8603 129.076C40.8257 129.853 39.5135 129.978 38.3504 129.41C33.4935 127.035 29.1366 123.55 25.7518 119.332C24.8655 118.228 23.2526 118.051 22.1479 118.937C21.0439 119.823 20.8672 121.437 21.7531 122.541C25.6072 127.344 30.568 131.312 36.099 134.016C38.9848 135.427 42.373 135.105 44.9406 133.175C47.5089 131.245 48.7609 128.08 48.2085 124.916L46.0408 112.498C45.8696 111.519 46.4992 110.599 47.474 110.403C48.2143 110.255 48.9547 110.57 49.3614 111.206L63.9599 134.01L44.6398 153.33L43.5799 152.745C21.899 140.773 7.5275 118.908 5.13664 94.2569C5.05836 93.4462 5.4487 92.8979 5.68864 92.6433C6.97755 91.2775 10.2646 92.1187 10.9359 94.8742L13.6826 106.152C14.2612 108.529 15.059 110.881 16.054 113.143C16.6244 114.438 18.1376 115.026 19.433 114.457C20.7287 113.887 21.3173 112.374 20.7472 111.078C19.8725 109.091 19.1718 107.025 18.6639 104.939L15.9173 93.6612C14.3986 87.4248 6.29669 84.5239 1.95792 89.1262C0.535025 90.6359 -0.166684 92.686 0.0336086 94.7512C2.58 121.004 17.8477 144.296 40.8889 157.111C39.1762 159.129 39.2681 162.165 41.1723 164.071L51.3507 174.249C51.8514 174.749 52.5076 175 53.1635 175C53.8195 175 54.4757 174.749 54.9764 174.249L84.5299 144.696C85.531 143.694 85.531 142.071 84.5299 141.07L74.3515 130.892ZM53.1656 168.809L44.7981 160.423L70.7261 134.517L79.0919 142.883L53.1656 168.809Z" fill="white"/>
<path d="M173.042 89.1264C168.742 84.5645 160.628 87.3159 159.082 93.6611L156.336 104.939C153.727 115.649 146.552 124.568 136.649 129.41C135.486 129.978 134.174 129.854 133.139 129.076C132.104 128.298 131.619 127.072 131.842 125.797L134.01 113.38C134.663 109.637 132.257 106.122 128.533 105.376C125.707 104.811 122.874 106.013 121.32 108.441L107.288 130.361C105.279 128.912 102.454 129.086 100.648 130.892L90.4693 141.07C89.9888 141.551 89.7188 142.203 89.7188 142.883C89.7188 143.563 89.9888 144.215 90.4693 144.696L120.023 174.249C120.524 174.75 121.18 175 121.836 175C122.492 175 123.148 174.75 123.649 174.249L133.827 164.071C135.731 162.166 135.823 159.13 134.112 157.112C137.378 155.295 140.564 153.215 143.587 150.921C144.715 150.065 144.935 148.458 144.079 147.33C143.224 146.202 141.617 145.982 140.488 146.837C137.596 149.032 134.545 151.019 131.419 152.744L130.36 153.33L111.04 134.01L125.638 111.206C126.045 110.57 126.788 110.255 127.526 110.404C128.501 110.598 129.13 111.519 128.959 112.498L126.791 124.916C126.238 128.08 127.49 131.245 130.059 133.175C132.627 135.105 136.015 135.426 138.9 134.016C150.176 128.503 158.347 118.347 161.317 106.152L164.063 94.8744C164.967 91.1629 170.16 91.1895 169.863 94.2568C168.175 111.651 160.402 128.016 147.973 140.338C146.968 141.335 146.96 142.958 147.957 143.963C148.954 144.969 150.577 144.976 151.582 143.979C164.859 130.816 173.164 113.334 174.965 94.7514C175.166 92.6863 174.465 90.6362 173.042 89.1264ZM121.836 168.811L95.9094 142.885L104.296 134.517L130.202 160.445L121.836 168.811Z" fill="white"/>
<path d="M40.3842 97.5693C40.7339 97.7364 41.1119 97.8198 41.4899 97.8198C41.868 97.8198 42.2463 97.7361 42.5956 97.5693C49.8472 94.1018 62.0121 86.6752 62.0121 75.8953C62.0121 69.0293 56.9419 63.6511 50.4693 63.6511C46.3065 63.6511 43.3107 65.3912 41.4899 66.9078C39.6692 65.3909 36.673 63.6511 32.5106 63.6511C26.0376 63.6511 20.9678 69.0293 20.9678 75.8953C20.9678 86.6752 33.1327 94.1014 40.3842 97.5693ZM32.5109 68.7781C36.958 68.7781 39.2727 71.8799 39.3944 72.0474C39.8743 72.7286 40.6491 73.1442 41.4834 73.1442C42.3243 73.1442 43.1049 72.7412 43.5841 72.0501C43.6805 71.9164 45.9962 68.7781 50.4699 68.7781C54.6368 68.7781 56.8858 72.4452 56.8858 75.8953C56.8858 81.5076 51.293 87.4863 41.4906 92.4023C31.6882 87.4863 26.0954 81.5076 26.0954 75.8953C26.0947 72.4449 28.3434 68.7781 32.5109 68.7781Z" fill="white"/>
<path d="M124.529 63.6511C118.056 63.6511 112.986 69.0293 112.986 75.8953C112.986 86.6752 125.151 94.1018 132.403 97.5693C132.752 97.7364 133.13 97.8198 133.508 97.8198C133.887 97.8198 134.265 97.7361 134.614 97.5693C141.866 94.1014 154.031 86.6752 154.031 75.8953C154.031 69.0293 148.961 63.6511 142.488 63.6511C138.325 63.6511 135.33 65.3909 133.509 66.9078C131.688 65.3905 128.692 63.6511 124.529 63.6511ZM135.602 72.0501C135.699 71.9164 138.014 68.7781 142.488 68.7781C146.655 68.7781 148.904 72.4452 148.904 75.8953C148.904 81.5076 143.311 87.4863 133.508 92.4023C123.706 87.4863 118.113 81.5076 118.113 75.8953C118.113 72.4449 120.362 68.7781 124.529 68.7781C128.979 68.7781 131.293 71.8833 131.413 72.0474C131.892 72.7289 132.667 73.1442 133.501 73.1442H133.502C134.342 73.1442 135.123 72.7412 135.602 72.0501Z" fill="white"/>
<path d="M133.661 26.0644C133.661 19.7801 131.628 13.7375 127.936 9.04907C127.06 7.93618 125.448 7.74546 124.336 8.6208C123.224 9.49648 123.032 11.1084 123.908 12.2206C126.891 16.0091 128.534 20.9258 128.534 26.0644C128.534 45.9105 105.326 61.5388 87.5003 70.2205C73.5171 63.4105 62.8687 55.8482 55.837 47.7312C49.6197 40.5545 46.4669 33.2647 46.4669 26.0644C46.4669 14.6788 54.3683 5.12695 65.7019 5.12695C78.5805 5.12695 85.1259 14.2191 85.3925 14.5985C85.8713 15.2896 86.6588 15.7021 87.5 15.7021C88.3412 15.7021 89.1287 15.2896 89.6075 14.5985C89.6735 14.5038 96.3177 5.12695 109.299 5.12695C111.948 5.12695 114.476 5.64717 116.812 6.67324C118.108 7.24199 119.62 6.65342 120.19 5.35664C120.759 4.06055 120.17 2.5481 118.873 1.97866C115.883 0.66582 112.662 0 109.299 0C98.0837 0 90.8288 5.76235 87.5007 9.19741C84.1723 5.76235 76.9176 0 65.7022 0C51.5013 0 41.3403 11.8552 41.3403 26.0644C41.3403 36.4355 47.1936 56.6333 86.3946 75.3792C86.7443 75.5463 87.1223 75.6297 87.5003 75.6297C87.8784 75.6297 88.2567 75.546 88.6061 75.3792C127.808 56.6333 133.661 36.4355 133.661 26.0644Z" fill="white"/>
</g>
<defs>
<clipPath id="clip0">
<rect width="175" height="175" fill="white"/>
</clipPath>
</defs>
</svg>
