<svg width="180" height="180" viewBox="0 0 180 180" fill="none" xmlns="http://www.w3.org/2000/svg">
<path d="M177.335 93.5594H173.893C171.008 93.5594 168.662 91.2131 168.662 88.3289C168.662 85.4447 171.008 83.0983 173.892 83.0983H177.335C178.807 83.0983 180 81.9058 180 80.4338V64.4483C180 62.9763 178.807 61.7838 177.335 61.7838H173.892C171.008 61.7838 168.662 59.4375 168.662 56.5533V55.5844L172.57 52.0045C173.63 51.0338 173.729 49.3976 172.794 48.306L162.393 36.1669C161.933 35.6301 161.279 35.2982 160.574 35.2441C159.868 35.185 159.172 35.4178 158.636 35.8773L156.022 38.1178C153.831 39.994 150.522 39.7388 148.646 37.5489C147.737 36.4883 147.296 35.1365 147.403 33.7433C147.51 32.3504 148.154 31.0827 149.215 30.1735L151.83 27.933C152.947 26.9757 153.077 25.2935 152.119 24.1762L141.718 12.0375C140.761 10.9206 139.079 10.7902 137.961 11.7478L135.346 13.988C134.285 14.8971 132.934 15.3394 131.541 15.2311C130.148 15.1239 128.88 14.4805 127.971 13.4191L124.483 9.3477C124.023 8.81087 123.369 8.47899 122.664 8.42485C121.957 8.37071 121.262 8.59782 120.726 9.05802L74.6621 48.5272H67.0561C65.5841 48.5272 64.3916 49.7196 64.3916 51.1916C64.3916 52.6636 65.5841 53.8561 67.0561 53.8561H163.333V56.5533C163.333 62.3759 168.07 67.1128 173.893 67.1128H174.671V77.7694H173.893C168.07 77.7694 163.333 82.5063 163.333 88.3289C163.333 94.1514 168.07 98.8884 173.893 98.8884H174.671V109.545H173.893C168.07 109.545 163.333 114.282 163.333 120.104V126.145H144.91C143.438 126.145 142.245 127.337 142.245 128.809C142.245 130.281 143.438 131.474 144.91 131.474H165.998C167.47 131.474 168.662 130.281 168.662 128.809V120.104C168.662 117.22 171.008 114.874 173.893 114.874H177.335C178.807 114.874 180 113.681 180 112.209V96.2239C180 94.7519 178.807 93.5594 177.335 93.5594ZM82.8525 48.5272L122.17 14.8391L123.924 16.8873C125.759 19.0294 128.319 20.3284 131.131 20.5449C133.943 20.7612 136.671 19.8706 138.813 18.0355L139.405 17.5289L146.339 25.6208L145.748 26.1277C141.326 29.9158 140.811 36.5951 144.6 41.0167C148.389 45.438 155.068 45.953 159.489 42.1646L160.08 41.6576L165.966 48.5272H82.8525Z" fill="white"/>
<path d="M121.523 126.143H16.6672V123.447C16.6672 117.624 11.9303 112.887 6.10768 112.887H5.32897V102.23H6.10768C11.9303 102.23 16.6672 97.4935 16.6672 91.671C16.6672 85.8484 11.9303 81.1114 6.10768 81.1114H5.32897V70.4549H6.10768C11.9303 70.4549 16.6672 65.718 16.6672 59.8954V53.8548H47.0748C48.5468 53.8548 49.7393 52.6624 49.7393 51.1904C49.7393 49.7184 48.5468 48.5259 47.0748 48.5259H14.0027C12.5307 48.5259 11.3382 49.7184 11.3382 51.1904V59.8954C11.3382 62.7792 8.9919 65.1259 6.10768 65.1259H2.66449C1.1925 65.1259 0 66.3184 0 67.7904V83.7759C0 85.2479 1.1925 86.4404 2.66449 86.4404H6.10768C8.99154 86.4404 11.3382 88.7867 11.3382 91.671C11.3382 94.5552 8.9919 96.9015 6.10768 96.9015H2.66449C1.1925 96.9015 0 98.094 0 99.566V115.551C0 117.023 1.1925 118.216 2.66449 118.216H6.10768C8.99154 118.216 11.3382 120.562 11.3382 123.447V124.887L7.5737 127.873C7.00592 128.323 6.64628 128.984 6.57667 129.705C6.50741 130.425 6.73452 131.144 7.20596 131.694L17.6066 143.833C18.0664 144.37 18.7207 144.702 19.4252 144.756C20.1297 144.814 20.8272 144.582 21.3634 144.123L23.9783 141.882C25.0393 140.973 26.3907 140.528 27.7836 140.639C29.1765 140.746 30.4442 141.39 31.3533 142.451C33.23 144.641 32.9747 147.95 30.7845 149.826L28.1699 152.066C27.0523 153.024 26.9226 154.706 27.8803 155.823L38.2809 167.962C39.2382 169.08 40.9204 169.21 42.0377 168.252L44.6526 166.012C45.7132 165.103 47.0689 164.66 48.4579 164.769C49.8508 164.876 51.1185 165.519 52.0276 166.581L55.5158 170.652C56.0428 171.267 56.7895 171.583 57.5405 171.583C58.1539 171.583 58.7702 171.372 59.2726 170.941L105.256 131.542C105.281 131.52 105.303 131.496 105.328 131.473H121.522C122.994 131.473 124.186 130.281 124.186 128.809C124.186 127.337 122.995 126.143 121.523 126.143ZM57.8302 165.16L56.0755 163.113C54.2407 160.97 51.6813 159.671 48.8689 159.455C46.0567 159.237 43.3286 160.129 41.1865 161.964L40.5948 162.471L33.661 154.379L34.2523 153.872C36.394 152.037 37.6934 149.478 37.91 146.665C38.1265 143.853 37.2357 141.124 35.4005 138.983C33.5657 136.841 31.0063 135.542 28.1939 135.325C25.3824 135.112 22.6536 136 20.5115 137.835L19.9202 138.341L14.0336 131.472H97.1471L57.8302 165.16Z" fill="white"/>
<path d="M150.431 61.0181H74.5314C73.0594 61.0181 71.8669 62.2106 71.8669 63.6826C71.8669 65.1546 73.0594 66.347 74.5314 66.347H147.766V113.653H32.2294V66.347H54.1675C55.6395 66.347 56.832 65.1546 56.832 63.6826C56.832 62.2106 55.6395 61.0181 54.1675 61.0181H29.5649C28.0929 61.0181 26.9004 62.2109 26.9004 63.6826V116.318C26.9004 117.79 28.0929 118.982 29.5649 118.982H150.431C151.903 118.982 153.096 117.79 153.096 116.318V63.6826C153.095 62.2106 151.903 61.0181 150.431 61.0181Z" fill="white"/>
<path d="M55.082 78.3369H40.3677C39.3935 78.3369 38.9414 79.3807 38.9414 80.3545C38.9414 81.4676 39.4631 82.4069 40.3677 82.4069H45.4815V102.339C45.4815 103.278 46.5949 103.765 47.7424 103.765C48.8558 103.765 50.0037 103.278 50.0037 102.339V82.4069H55.0823C55.9869 82.4069 56.5086 81.4328 56.5086 80.3545C56.5083 79.3807 56.0562 78.3369 55.082 78.3369Z" fill="white"/>
<path d="M61.2384 78.3369C60.0906 78.3369 58.9775 78.7542 58.9775 79.728V102.339C58.9775 103.278 60.0906 103.765 61.2384 103.765C62.3518 103.765 63.4993 103.278 63.4993 102.339V79.728C63.4993 78.7542 62.3518 78.3369 61.2384 78.3369Z" fill="white"/>
<path d="M81.4486 94.8602C80.2659 94.8602 79.2917 95.2083 79.2221 96.2865C79.1177 97.7476 78.8396 100.009 75.6742 100.009C73.2741 100.009 71.9522 98.7214 71.9522 96.0081V86.3028C71.9522 83.5895 73.2737 82.3021 75.6046 82.3021C78.9089 82.3021 79.1525 84.6677 79.2225 85.746C79.2569 86.7898 80.1967 87.1722 81.4834 87.1722C83.0137 87.1722 83.7446 86.7549 83.7446 84.9458C83.7446 80.9102 80.3004 78.3364 75.465 78.3364C71.0821 78.3364 67.4297 80.4929 67.4297 86.3025V96.0077C67.4297 101.817 71.0476 103.974 75.4305 103.974C80.3004 103.974 83.7446 101.295 83.7446 97.086C83.7446 95.312 83.0137 94.8602 81.4486 94.8602Z" fill="white"/>
<path d="M103.779 100.878L96.1957 89.3296L102.422 81.5372C102.665 81.2243 102.7 80.9111 102.7 80.6678C102.7 79.5196 101.239 78.3369 100.091 78.3369C99.6048 78.3369 99.1871 78.5106 98.8394 78.9979L91.3255 89.2248V79.728C91.3255 78.7542 90.178 78.3369 89.0646 78.3369C87.9168 78.3369 86.8037 78.7542 86.8037 79.728H86.8041V102.339C86.8041 103.278 87.9171 103.765 89.065 103.765C90.1784 103.765 91.3259 103.278 91.3259 102.339V95.5213L93.2046 93.156L99.7444 103.07C100.127 103.696 100.718 103.939 101.31 103.939C102.631 103.939 104.023 102.792 104.023 101.679C104.023 101.4 103.953 101.122 103.779 100.878Z" fill="white"/>
<path d="M120.37 99.8005H110.526V92.8083H115.814C116.788 92.8083 117.24 91.8689 117.24 91.0687C117.24 90.1294 116.718 89.2596 115.814 89.2596H110.526V82.3025H120.37C121.275 82.3025 121.797 81.3632 121.797 80.2849C121.797 79.3459 121.344 78.3369 120.37 78.3369H107.987C106.978 78.3369 106.004 78.8238 106.004 79.7632V102.339C106.004 103.279 106.978 103.766 107.987 103.766H120.37C121.345 103.766 121.797 102.757 121.797 101.818C121.797 100.74 121.275 99.8005 120.37 99.8005Z" fill="white"/>
<path d="M138.912 78.3369H124.198C123.224 78.3369 122.771 79.3807 122.771 80.3545C122.771 81.4676 123.293 82.4069 124.198 82.4069H129.312V102.339C129.312 103.278 130.425 103.765 131.572 103.765C132.686 103.765 133.834 103.278 133.834 102.339V82.4069H138.912C139.817 82.4069 140.339 81.4328 140.339 80.3545C140.338 79.3807 139.886 78.3369 138.912 78.3369Z" fill="white"/>
</svg>
