<svg width="180" height="180" viewBox="0 0 180 180" fill="none" xmlns="http://www.w3.org/2000/svg">
<g clip-path="url(#clip0)">
<path d="M173.092 58.1116H162.552C161.969 57.0742 161.327 56.0757 160.624 55.1227C160.531 54.9687 160.422 54.8252 160.3 54.6941C155.048 47.8404 146.785 43.4093 137.503 43.4093H126.573C125.117 43.4093 123.936 44.5898 123.936 46.046C123.936 47.5022 125.117 48.6827 126.573 48.6827H137.503C143.048 48.6827 148.145 50.622 152.163 53.8525H115.729C114.404 53.8525 113.169 54.5661 112.507 55.715C111.845 56.8643 111.847 58.2906 112.513 59.4377L132.617 94.0754C133.866 96.2277 135.899 97.782 138.23 98.4693C138.358 98.515 138.491 98.5519 138.628 98.5776C139.375 98.7635 140.148 98.8648 140.934 98.8648H160.942V104.734H156.357C153.145 104.734 150.533 107.347 150.533 110.558V117.235C150.533 120.447 153.146 123.059 156.357 123.059H160.942V130.811H146.62L103.225 56.0416C102.441 54.692 100.985 53.8532 99.424 53.8532H14.0572C11.7594 53.8532 9.89016 55.721 9.89016 58.0164V77.314H5.27344V48.6824H114.332C115.788 48.6824 116.968 47.5018 116.968 46.0457C116.968 44.5895 115.788 43.4089 114.332 43.4089H54.6905L48.4042 35.2386C46.8717 33.2463 44.4558 32.0566 41.9421 32.0566H19.5202C15.717 32.0566 12.6225 35.1511 12.6225 38.9543V43.4089H4.43672C1.9902 43.4089 0 45.4009 0 47.8492V131.648C0 134.094 1.9902 136.084 4.43672 136.084H16.5779C18.9921 142.981 25.5614 147.942 33.2715 147.942C40.9816 147.942 47.5513 142.981 49.9651 136.084H60.4473C61.9035 136.084 63.084 134.904 63.084 133.448C63.084 131.991 61.9035 130.811 60.4473 130.811H50.9418C50.9474 130.627 50.9558 130.444 50.9558 130.258C50.9558 120.507 43.0225 112.573 33.2712 112.573C23.5199 112.573 15.5869 120.507 15.5869 130.258C15.5869 130.443 15.5953 130.627 15.6009 130.811H5.27344V82.5878H112.535L140.523 130.811H126.948C126.953 130.627 126.962 130.444 126.962 130.258C126.962 120.507 119.029 112.574 109.277 112.574C99.5259 112.574 91.5929 120.507 91.5929 130.258C91.5929 130.444 91.6014 130.627 91.607 130.811H72.7527C71.2965 130.811 70.116 131.992 70.116 133.448C70.116 134.904 71.2965 136.085 72.7527 136.085H92.584C94.9982 142.981 101.567 147.943 109.278 147.943C116.988 147.943 123.557 142.981 125.971 136.085C130.157 136.085 161.646 136.086 161.778 136.086C163.614 136.086 165.192 134.966 165.866 133.373C166.091 132.843 166.216 132.26 166.216 131.648V72.1214C166.216 69.0758 165.735 66.1413 164.852 63.3851H173.092C173.994 63.3851 174.727 64.1184 174.727 65.0198V72.9124C174.727 74.0768 174.305 75.2004 173.535 76.0786L172.541 77.2177C171.583 78.3145 171.695 79.9799 172.792 80.9383C173.292 81.3749 173.91 81.589 174.525 81.589C175.26 81.589 175.991 81.2835 176.512 80.6869L177.505 79.5506C179.114 77.713 180 75.3558 180 72.9128V65.0202C180 61.2107 176.901 58.1116 173.092 58.1116ZM160.941 117.786H156.357C156.053 117.786 155.806 117.539 155.806 117.236V110.559C155.806 110.255 156.053 110.008 156.357 110.008H160.941V117.786ZM17.8959 38.9547C17.8959 38.0592 18.6247 37.3304 19.5202 37.3304H41.9418C42.8295 37.3304 43.6827 37.7505 44.2241 38.4544L48.0364 43.4093H17.8959V38.9547ZM33.2715 117.847C40.115 117.847 45.6827 123.415 45.6827 130.258C45.6827 137.102 40.115 142.669 33.2715 142.669C26.428 142.669 20.8607 137.102 20.8607 130.258C20.8607 123.415 26.428 117.847 33.2715 117.847ZM58.6533 59.127H80.4705V77.3143H58.6533V59.127ZM53.3798 77.3143H31.5622V59.127H53.3798V77.3143ZM15.1639 59.127H26.2891V77.3143H15.1639V59.127ZM85.744 77.3143V59.127H98.9181L109.474 77.3143H85.744ZM109.277 142.669C102.434 142.669 96.8664 137.102 96.8664 130.258C96.8664 123.415 102.434 117.847 109.277 117.847C116.121 117.847 121.688 123.415 121.688 130.258C121.688 137.102 116.12 142.669 109.277 142.669ZM118.429 59.1259H136.476V90.2195L118.429 59.1259ZM141.749 93.5913V59.1255H156.998C159.487 62.8475 160.942 67.317 160.942 72.1211V93.591H141.749V93.5913Z" fill="white"/>
<path d="M33.2708 138.296C37.7026 138.296 41.3082 134.69 41.3082 130.259C41.3082 125.827 37.7026 122.221 33.2708 122.221C28.839 122.221 25.2334 125.827 25.2334 130.259C25.2334 134.69 28.839 138.296 33.2708 138.296ZM33.2708 127.495C34.7948 127.495 36.0348 128.735 36.0348 130.259C36.0348 131.783 34.7948 133.023 33.2708 133.023C31.7468 133.023 30.5068 131.783 30.5068 130.259C30.5068 128.735 31.7468 127.495 33.2708 127.495Z" fill="white"/>
<path d="M109.279 122.221C104.847 122.221 101.241 125.827 101.241 130.259C101.241 134.69 104.847 138.296 109.279 138.296C113.71 138.296 117.316 134.69 117.316 130.259C117.316 125.827 113.71 122.221 109.279 122.221ZM109.279 133.023C107.755 133.023 106.515 131.783 106.515 130.259C106.515 128.735 107.755 127.495 109.279 127.495C110.803 127.495 112.043 128.735 112.043 130.259C112.043 131.783 110.803 133.023 109.279 133.023Z" fill="white"/>
</g>
<defs>
<clipPath id="clip0">
<rect width="180" height="180" fill="white"/>
</clipPath>
</defs>
</svg>
