<svg width="175" height="175" viewBox="0 0 175 175" fill="none" xmlns="http://www.w3.org/2000/svg">
<path d="M85.5259 83.863L38.0272 131.361C36.4812 132.907 36.4812 135.414 38.0272 136.961C38.8005 137.734 39.8137 138.121 40.8269 138.121C41.84 138.121 42.8532 137.734 43.6265 136.961L91.1252 89.4626C92.6713 87.9165 92.6713 85.4095 91.1252 83.8634C89.5791 82.3169 87.072 82.3173 85.5259 83.863Z" fill="white"/>
<path d="M159.641 15.3497C149.743 5.45113 136.582 0 122.584 0C108.586 0 95.4253 5.45113 85.5267 15.3497C70.2209 30.6555 65.9517 53.5959 74.4894 73.2549L1.24006 146.506C0.499672 147.247 0.0827599 148.25 0.0803844 149.298L0.0356445 170.985C0.0356445 171.022 0.0360405 171.06 0.0372282 171.098C0.0372282 171.099 0.0372282 171.1 0.0372282 171.101C0.0372282 171.101 0.0372282 171.102 0.0372282 171.102C0.0641513 172.078 0.450181 173.047 1.19532 173.792C1.94995 174.547 2.93344 174.933 3.92247 174.951C3.92247 174.951 3.92286 174.951 3.92326 174.951C3.92484 174.951 3.92603 174.951 3.92999 174.951C3.94424 174.945 3.97077 174.951 3.99057 174.951L46.048 175C46.0496 175 46.0511 175 46.0527 175C47.1015 175 48.1084 174.583 48.8507 173.842C49.5943 173.099 50.012 172.092 50.012 171.041V154.544H66.5079C68.6942 154.544 70.4672 152.772 70.4672 150.585L70.4676 134.089H86.9635C89.1498 134.089 90.9228 132.316 90.9228 130.13V111.314L101.736 100.501C108.448 103.416 115.54 104.838 122.583 104.838C136.167 104.837 149.561 99.5433 159.642 89.4634C180.074 69.0304 180.074 35.7827 159.641 15.3497ZM154.042 83.8642C140.468 97.4386 119.823 100.788 102.669 92.2005C101.144 91.4367 99.3018 91.7356 98.0966 92.9412L84.1635 106.874C83.4212 107.617 83.0039 108.624 83.0039 109.674V126.17H66.5079C64.3216 126.17 62.5487 127.943 62.5487 130.13L62.5483 146.626H46.0523C43.866 146.626 42.0931 148.398 42.0931 150.585V167.077L13.5423 167.044L32.4277 148.158C33.9738 146.612 33.9738 144.105 32.4277 142.559C30.8812 141.013 28.375 141.013 26.8281 142.559L7.9736 161.414L7.99537 150.948L82.0493 76.8927C83.2549 75.6871 83.5534 73.8453 82.7901 72.3209C74.202 55.167 77.5523 34.5221 91.1263 20.9485C99.5291 12.5462 110.701 7.91855 122.584 7.91855C134.467 7.91855 145.639 12.5462 154.042 20.9489C162.444 29.3517 167.072 40.5232 167.072 52.4066C167.072 64.2899 162.444 75.4618 154.042 83.8642Z" fill="white"/>
<path d="M120.118 28.557C112.863 35.8127 112.863 47.6181 120.118 54.8739C123.745 58.5018 128.511 60.3151 133.276 60.3151C138.041 60.3151 142.807 58.5014 146.434 54.8735C153.689 47.6181 153.689 35.8123 146.434 28.557C139.178 21.302 127.373 21.302 120.118 28.557ZM140.835 49.2747C136.667 53.4422 129.885 53.4422 125.717 49.2747C121.549 45.1067 121.549 38.3245 125.717 34.1562C129.885 29.9882 136.667 29.9886 140.835 34.1562C145.003 38.3245 145.003 45.1067 140.835 49.2747Z" fill="white"/>
</svg>
