<svg width="35" height="34" viewBox="0 0 35 34" fill="none" xmlns="http://www.w3.org/2000/svg">
<path d="M34.4277 4.02508C33.1634 4.70769 31.8161 5.16015 30.4115 5.37985C31.8565 4.318 32.9594 2.64938 33.4779 0.638154C32.1306 1.62677 30.6431 2.32508 29.0579 2.71477C27.7786 1.03831 25.9554 0 23.9664 0C20.1074 0 17.0006 3.85508 17.0006 8.58108C17.0006 9.26108 17.0474 9.91492 17.1621 10.5374C11.3672 10.1895 6.23961 6.77123 2.79498 1.564C2.19361 2.84815 1.84086 4.318 1.84086 5.90031C1.84086 8.87138 3.08398 11.5051 4.93698 13.0298C3.81711 13.0037 2.71848 12.6035 1.78773 11.9732C1.78773 11.9994 1.78773 12.0334 1.78773 12.0674C1.78773 16.2363 4.20386 19.6991 7.37223 20.4968C6.80486 20.6877 6.18648 20.7792 5.54473 20.7792C5.09848 20.7792 4.64798 20.7478 4.22511 20.6328C5.12823 24.0302 7.69098 26.5278 10.7382 26.6089C8.36673 28.8922 5.35561 30.2678 2.09586 30.2678C1.52423 30.2678 0.975984 30.2365 0.427734 30.1502C3.51536 32.6008 7.17461 34 11.1207 34C23.9472 34 30.9597 20.9231 30.9597 9.588C30.9597 9.20877 30.9491 8.84262 30.9342 8.47908C32.3176 7.27077 33.48 5.76169 34.4277 4.02508Z" fill="white"/>
</svg>
